<?xml version="1.0" encoding="UTF-8"?>
<!DOCTYPE svg PUBLIC "-//W3C//DTD SVG 1.1//EN" "http://www.w3.org/Graphics/SVG/1.1/DTD/svg11.dtd">
<svg width="203mm" height="124mm" viewBox="0 0 20300 12400" version="1.1" baseProfile="tiny" xmlns="http://www.w3.org/2000/svg" stroke-width="28.222" stroke-linejoin="round" xml:space="preserve">
 <path fill="rgb(255,255,255)" stroke="none" d="M 10135,12393 L 0,12393 0,0 20270,0 20270,12393 10135,12393 Z"/>
 <path fill="none" stroke="rgb(179,179,179)" stroke-linejoin="round" d="M 9459,10518 L 2408,10518 2408,446 16509,446 16509,10518 9459,10518 Z"/>
 <path fill="none" stroke="rgb(179,179,179)" stroke-linejoin="round" d="M 2408,445 L 2408,10517"/>
 <path fill="none" stroke="rgb(179,179,179)" stroke-linejoin="round" d="M 3974,445 L 3974,10517"/>
 <path fill="none" stroke="rgb(179,179,179)" stroke-linejoin="round" d="M 5541,445 L 5541,10517"/>
 <path fill="none" stroke="rgb(179,179,179)" stroke-linejoin="round" d="M 7108,445 L 7108,10517"/>
 <path fill="none" stroke="rgb(179,179,179)" stroke-linejoin="round" d="M 8675,445 L 8675,10517"/>
 <path fill="none" stroke="rgb(179,179,179)" stroke-linejoin="round" d="M 10241,445 L 10241,10517"/>
 <path fill="none" stroke="rgb(179,179,179)" stroke-linejoin="round" d="M 11808,445 L 11808,10517"/>
 <path fill="none" stroke="rgb(179,179,179)" stroke-linejoin="round" d="M 13375,445 L 13375,10517"/>
 <path fill="none" stroke="rgb(179,179,179)" stroke-linejoin="round" d="M 14942,445 L 14942,10517"/>
 <path fill="none" stroke="rgb(179,179,179)" stroke-linejoin="round" d="M 16509,445 L 16509,10517"/>
 <path fill="none" stroke="rgb(179,179,179)" stroke-linejoin="round" d="M 3191,445 L 3191,10517"/>
 <path fill="none" stroke="rgb(179,179,179)" stroke-linejoin="round" d="M 4758,445 L 4758,10517"/>
 <path fill="none" stroke="rgb(179,179,179)" stroke-linejoin="round" d="M 6325,445 L 6325,10517"/>
 <path fill="none" stroke="rgb(179,179,179)" stroke-linejoin="round" d="M 7892,445 L 7892,10517"/>
 <path fill="none" stroke="rgb(179,179,179)" stroke-linejoin="round" d="M 9458,445 L 9458,10517"/>
 <path fill="none" stroke="rgb(179,179,179)" stroke-linejoin="round" d="M 11024,445 L 11024,10517"/>
 <path fill="none" stroke="rgb(179,179,179)" stroke-linejoin="round" d="M 12591,445 L 12591,10517"/>
 <path fill="none" stroke="rgb(179,179,179)" stroke-linejoin="round" d="M 14158,445 L 14158,10517"/>
 <path fill="none" stroke="rgb(179,179,179)" stroke-linejoin="round" d="M 15725,445 L 15725,10517"/>
 <path fill="none" stroke="rgb(179,179,179)" stroke-linejoin="round" d="M 16509,10517 L 2408,10517"/>
 <path fill="none" stroke="rgb(179,179,179)" stroke-linejoin="round" d="M 16509,9509 L 2408,9509"/>
 <path fill="none" stroke="rgb(179,179,179)" stroke-linejoin="round" d="M 16509,8502 L 2408,8502"/>
 <path fill="none" stroke="rgb(179,179,179)" stroke-linejoin="round" d="M 16509,7495 L 2408,7495"/>
 <path fill="none" stroke="rgb(179,179,179)" stroke-linejoin="round" d="M 16509,6487 L 2408,6487"/>
 <path fill="none" stroke="rgb(179,179,179)" stroke-linejoin="round" d="M 16509,5481 L 2408,5481"/>
 <path fill="none" stroke="rgb(179,179,179)" stroke-linejoin="round" d="M 16509,4474 L 2408,4474"/>
 <path fill="none" stroke="rgb(179,179,179)" stroke-linejoin="round" d="M 16509,3466 L 2408,3466"/>
 <path fill="none" stroke="rgb(179,179,179)" stroke-linejoin="round" d="M 16509,2459 L 2408,2459"/>
 <path fill="none" stroke="rgb(179,179,179)" stroke-linejoin="round" d="M 16509,1452 L 2408,1452"/>
 <path fill="none" stroke="rgb(179,179,179)" stroke-linejoin="round" d="M 16509,445 L 2408,445"/>
 <path fill="none" stroke="rgb(179,179,179)" stroke-linejoin="round" d="M 16509,10013 L 2408,10013"/>
 <path fill="none" stroke="rgb(179,179,179)" stroke-linejoin="round" d="M 16509,9006 L 2408,9006"/>
 <path fill="none" stroke="rgb(179,179,179)" stroke-linejoin="round" d="M 16509,7998 L 2408,7998"/>
 <path fill="none" stroke="rgb(179,179,179)" stroke-linejoin="round" d="M 16509,6991 L 2408,6991"/>
 <path fill="none" stroke="rgb(179,179,179)" stroke-linejoin="round" d="M 16509,5985 L 2408,5985"/>
 <path fill="none" stroke="rgb(179,179,179)" stroke-linejoin="round" d="M 16509,4977 L 2408,4977"/>
 <path fill="none" stroke="rgb(179,179,179)" stroke-linejoin="round" d="M 16509,3970 L 2408,3970"/>
 <path fill="none" stroke="rgb(179,179,179)" stroke-linejoin="round" d="M 16509,2963 L 2408,2963"/>
 <path fill="none" stroke="rgb(179,179,179)" stroke-linejoin="round" d="M 16509,1955 L 2408,1955"/>
 <path fill="none" stroke="rgb(179,179,179)" stroke-linejoin="round" d="M 16509,948 L 2408,948"/>
 <path fill="none" stroke="rgb(179,179,179)" stroke-linejoin="round" d="M 2408,10667 L 2408,10517"/>
 <path fill="none" stroke="rgb(179,179,179)" stroke-linejoin="round" d="M 2408,10667 L 2408,10517"/>
 <path fill="none" stroke="rgb(179,179,179)" stroke-linejoin="round" d="M 3974,10667 L 3974,10517"/>
 <path fill="none" stroke="rgb(179,179,179)" stroke-linejoin="round" d="M 3974,10667 L 3974,10517"/>
 <path fill="none" stroke="rgb(179,179,179)" stroke-linejoin="round" d="M 5541,10667 L 5541,10517"/>
 <path fill="none" stroke="rgb(179,179,179)" stroke-linejoin="round" d="M 5541,10667 L 5541,10517"/>
 <path fill="none" stroke="rgb(179,179,179)" stroke-linejoin="round" d="M 7108,10667 L 7108,10517"/>
 <path fill="none" stroke="rgb(179,179,179)" stroke-linejoin="round" d="M 7108,10667 L 7108,10517"/>
 <path fill="none" stroke="rgb(179,179,179)" stroke-linejoin="round" d="M 8675,10667 L 8675,10517"/>
 <path fill="none" stroke="rgb(179,179,179)" stroke-linejoin="round" d="M 8675,10667 L 8675,10517"/>
 <path fill="none" stroke="rgb(179,179,179)" stroke-linejoin="round" d="M 10241,10667 L 10241,10517"/>
 <path fill="none" stroke="rgb(179,179,179)" stroke-linejoin="round" d="M 10241,10667 L 10241,10517"/>
 <path fill="none" stroke="rgb(179,179,179)" stroke-linejoin="round" d="M 11808,10667 L 11808,10517"/>
 <path fill="none" stroke="rgb(179,179,179)" stroke-linejoin="round" d="M 11808,10667 L 11808,10517"/>
 <path fill="none" stroke="rgb(179,179,179)" stroke-linejoin="round" d="M 13375,10667 L 13375,10517"/>
 <path fill="none" stroke="rgb(179,179,179)" stroke-linejoin="round" d="M 13375,10667 L 13375,10517"/>
 <path fill="none" stroke="rgb(179,179,179)" stroke-linejoin="round" d="M 14942,10667 L 14942,10517"/>
 <path fill="none" stroke="rgb(179,179,179)" stroke-linejoin="round" d="M 14942,10667 L 14942,10517"/>
 <path fill="none" stroke="rgb(179,179,179)" stroke-linejoin="round" d="M 16509,10667 L 16509,10517"/>
 <path fill="none" stroke="rgb(179,179,179)" stroke-linejoin="round" d="M 16509,10667 L 16509,10517"/>
 <path fill="none" stroke="rgb(179,179,179)" stroke-linejoin="round" d="M 2408,10517 L 16509,10517"/>
 <path fill="none" stroke="rgb(179,179,179)" stroke-linejoin="round" d="M 2258,10517 L 2408,10517"/>
 <path fill="none" stroke="rgb(179,179,179)" stroke-linejoin="round" d="M 2258,10517 L 2408,10517"/>
 <path fill="none" stroke="rgb(179,179,179)" stroke-linejoin="round" d="M 2258,9509 L 2408,9509"/>
 <path fill="none" stroke="rgb(179,179,179)" stroke-linejoin="round" d="M 2258,9509 L 2408,9509"/>
 <path fill="none" stroke="rgb(179,179,179)" stroke-linejoin="round" d="M 2258,8502 L 2408,8502"/>
 <path fill="none" stroke="rgb(179,179,179)" stroke-linejoin="round" d="M 2258,8502 L 2408,8502"/>
 <path fill="none" stroke="rgb(179,179,179)" stroke-linejoin="round" d="M 2258,7495 L 2408,7495"/>
 <path fill="none" stroke="rgb(179,179,179)" stroke-linejoin="round" d="M 2258,7495 L 2408,7495"/>
 <path fill="none" stroke="rgb(179,179,179)" stroke-linejoin="round" d="M 2258,6487 L 2408,6487"/>
 <path fill="none" stroke="rgb(179,179,179)" stroke-linejoin="round" d="M 2258,6487 L 2408,6487"/>
 <path fill="none" stroke="rgb(179,179,179)" stroke-linejoin="round" d="M 2258,5481 L 2408,5481"/>
 <path fill="none" stroke="rgb(179,179,179)" stroke-linejoin="round" d="M 2258,5481 L 2408,5481"/>
 <path fill="none" stroke="rgb(179,179,179)" stroke-linejoin="round" d="M 2258,4474 L 2408,4474"/>
 <path fill="none" stroke="rgb(179,179,179)" stroke-linejoin="round" d="M 2258,4474 L 2408,4474"/>
 <path fill="none" stroke="rgb(179,179,179)" stroke-linejoin="round" d="M 2258,3466 L 2408,3466"/>
 <path fill="none" stroke="rgb(179,179,179)" stroke-linejoin="round" d="M 2258,3466 L 2408,3466"/>
 <path fill="none" stroke="rgb(179,179,179)" stroke-linejoin="round" d="M 2258,2459 L 2408,2459"/>
 <path fill="none" stroke="rgb(179,179,179)" stroke-linejoin="round" d="M 2258,2459 L 2408,2459"/>
 <path fill="none" stroke="rgb(179,179,179)" stroke-linejoin="round" d="M 2258,1452 L 2408,1452"/>
 <path fill="none" stroke="rgb(179,179,179)" stroke-linejoin="round" d="M 2258,1452 L 2408,1452"/>
 <path fill="none" stroke="rgb(179,179,179)" stroke-linejoin="round" d="M 2258,445 L 2408,445"/>
 <path fill="none" stroke="rgb(179,179,179)" stroke-linejoin="round" d="M 2258,445 L 2408,445"/>
 <path fill="none" stroke="rgb(179,179,179)" stroke-linejoin="round" d="M 2408,10517 L 2408,445"/>
 <path fill="none" stroke="rgb(0,69,134)" stroke-width="80" stroke-linejoin="round" d="M 2408,10231 L 3974,10233 5541,10328 7108,10326 8675,10227 10241,10313 11808,10291 13375,10225 14942,10194 16509,10183"/>
 <path fill="rgb(0,69,134)" stroke="none" d="M 2283,10106 L 2283,10356 2533,10356 2533,10106 2283,10106 Z"/>
 <path fill="none" stroke="rgb(0,69,134)" stroke-linejoin="round" d="M 2283,10106 L 2283,10356 2533,10356 2533,10106 2283,10106 Z"/>
 <path fill="rgb(0,69,134)" stroke="none" d="M 3849,10108 L 3849,10358 4099,10358 4099,10108 3849,10108 Z"/>
 <path fill="none" stroke="rgb(0,69,134)" stroke-linejoin="round" d="M 3849,10108 L 3849,10358 4099,10358 4099,10108 3849,10108 Z"/>
 <path fill="rgb(0,69,134)" stroke="none" d="M 5416,10203 L 5416,10453 5666,10453 5666,10203 5416,10203 Z"/>
 <path fill="none" stroke="rgb(0,69,134)" stroke-linejoin="round" d="M 5416,10203 L 5416,10453 5666,10453 5666,10203 5416,10203 Z"/>
 <path fill="rgb(0,69,134)" stroke="none" d="M 6983,10201 L 6983,10451 7233,10451 7233,10201 6983,10201 Z"/>
 <path fill="none" stroke="rgb(0,69,134)" stroke-linejoin="round" d="M 6983,10201 L 6983,10451 7233,10451 7233,10201 6983,10201 Z"/>
 <path fill="rgb(0,69,134)" stroke="none" d="M 8550,10102 L 8550,10352 8800,10352 8800,10102 8550,10102 Z"/>
 <path fill="none" stroke="rgb(0,69,134)" stroke-linejoin="round" d="M 8550,10102 L 8550,10352 8800,10352 8800,10102 8550,10102 Z"/>
 <path fill="rgb(0,69,134)" stroke="none" d="M 10117,10188 L 10117,10438 10366,10438 10366,10188 10117,10188 Z"/>
 <path fill="none" stroke="rgb(0,69,134)" stroke-linejoin="round" d="M 10117,10188 L 10117,10438 10366,10438 10366,10188 10117,10188 Z"/>
 <path fill="rgb(0,69,134)" stroke="none" d="M 11683,10166 L 11683,10416 11933,10416 11933,10166 11683,10166 Z"/>
 <path fill="none" stroke="rgb(0,69,134)" stroke-linejoin="round" d="M 11683,10166 L 11683,10416 11933,10416 11933,10166 11683,10166 Z"/>
 <path fill="rgb(0,69,134)" stroke="none" d="M 13250,10100 L 13250,10350 13500,10350 13500,10100 13250,10100 Z"/>
 <path fill="none" stroke="rgb(0,69,134)" stroke-linejoin="round" d="M 13250,10100 L 13250,10350 13500,10350 13500,10100 13250,10100 Z"/>
 <path fill="rgb(0,69,134)" stroke="none" d="M 14817,10069 L 14817,10319 15067,10319 15067,10069 14817,10069 Z"/>
 <path fill="none" stroke="rgb(0,69,134)" stroke-linejoin="round" d="M 14817,10069 L 14817,10319 15067,10319 15067,10069 14817,10069 Z"/>
 <path fill="rgb(0,69,134)" stroke="none" d="M 16384,10058 L 16384,10308 16634,10308 16634,10058 16384,10058 Z"/>
 <path fill="none" stroke="rgb(0,69,134)" stroke-linejoin="round" d="M 16384,10058 L 16384,10308 16634,10308 16634,10058 16384,10058 Z"/>
 <path fill="none" stroke="rgb(255,66,14)" stroke-width="80" stroke-linejoin="round" d="M 2408,10231 L 3974,10239 5541,10364 7108,10340 8675,10347 10241,10336 11808,10347 13375,10356 14942,10298 16509,10365"/>
 <path fill="rgb(255,66,14)" stroke="none" d="M 2283,10231 L 2408,10356 2533,10231 2408,10106 2283,10231 Z"/>
 <path fill="none" stroke="rgb(255,66,14)" stroke-linejoin="round" d="M 2283,10231 L 2408,10356 2533,10231 2408,10106 2283,10231 Z"/>
 <path fill="rgb(255,66,14)" stroke="none" d="M 3849,10239 L 3974,10364 4099,10239 3974,10114 3849,10239 Z"/>
 <path fill="none" stroke="rgb(255,66,14)" stroke-linejoin="round" d="M 3849,10239 L 3974,10364 4099,10239 3974,10114 3849,10239 Z"/>
 <path fill="rgb(255,66,14)" stroke="none" d="M 5416,10364 L 5541,10489 5666,10364 5541,10239 5416,10364 Z"/>
 <path fill="none" stroke="rgb(255,66,14)" stroke-linejoin="round" d="M 5416,10364 L 5541,10489 5666,10364 5541,10239 5416,10364 Z"/>
 <path fill="rgb(255,66,14)" stroke="none" d="M 6983,10340 L 7108,10465 7233,10340 7108,10215 6983,10340 Z"/>
 <path fill="none" stroke="rgb(255,66,14)" stroke-linejoin="round" d="M 6983,10340 L 7108,10465 7233,10340 7108,10215 6983,10340 Z"/>
 <path fill="rgb(255,66,14)" stroke="none" d="M 8550,10347 L 8675,10472 8800,10347 8675,10222 8550,10347 Z"/>
 <path fill="none" stroke="rgb(255,66,14)" stroke-linejoin="round" d="M 8550,10347 L 8675,10472 8800,10347 8675,10222 8550,10347 Z"/>
 <path fill="rgb(255,66,14)" stroke="none" d="M 10117,10336 L 10241,10461 10366,10336 10241,10211 10117,10336 Z"/>
 <path fill="none" stroke="rgb(255,66,14)" stroke-linejoin="round" d="M 10117,10336 L 10241,10461 10366,10336 10241,10211 10117,10336 Z"/>
 <path fill="rgb(255,66,14)" stroke="none" d="M 11683,10347 L 11808,10472 11933,10347 11808,10222 11683,10347 Z"/>
 <path fill="none" stroke="rgb(255,66,14)" stroke-linejoin="round" d="M 11683,10347 L 11808,10472 11933,10347 11808,10222 11683,10347 Z"/>
 <path fill="rgb(255,66,14)" stroke="none" d="M 13250,10356 L 13375,10481 13500,10356 13375,10231 13250,10356 Z"/>
 <path fill="none" stroke="rgb(255,66,14)" stroke-linejoin="round" d="M 13250,10356 L 13375,10481 13500,10356 13375,10231 13250,10356 Z"/>
 <path fill="rgb(255,66,14)" stroke="none" d="M 14817,10298 L 14942,10423 15067,10298 14942,10173 14817,10298 Z"/>
 <path fill="none" stroke="rgb(255,66,14)" stroke-linejoin="round" d="M 14817,10298 L 14942,10423 15067,10298 14942,10173 14817,10298 Z"/>
 <path fill="rgb(255,66,14)" stroke="none" d="M 16384,10365 L 16509,10490 16634,10365 16509,10240 16384,10365 Z"/>
 <path fill="none" stroke="rgb(255,66,14)" stroke-linejoin="round" d="M 16384,10365 L 16509,10490 16634,10365 16509,10240 16384,10365 Z"/>
 <path fill="none" stroke="rgb(255,211,32)" stroke-width="80" stroke-linejoin="round" d="M 2408,8263 L 3974,7733 5541,9101 7108,9018 8675,8957 10241,8814 11808,8777 13375,7664 14942,7022 16509,7293"/>
 <path fill="rgb(255,211,32)" stroke="none" d="M 2283,8138 L 2408,8388 2533,8138 2283,8138 Z"/>
 <path fill="none" stroke="rgb(255,211,32)" stroke-linejoin="round" d="M 2283,8138 L 2408,8388 2533,8138 2283,8138 Z"/>
 <path fill="rgb(255,211,32)" stroke="none" d="M 3849,7608 L 3974,7858 4099,7608 3849,7608 Z"/>
 <path fill="none" stroke="rgb(255,211,32)" stroke-linejoin="round" d="M 3849,7608 L 3974,7858 4099,7608 3849,7608 Z"/>
 <path fill="rgb(255,211,32)" stroke="none" d="M 5416,8976 L 5541,9226 5666,8976 5416,8976 Z"/>
 <path fill="none" stroke="rgb(255,211,32)" stroke-linejoin="round" d="M 5416,8976 L 5541,9226 5666,8976 5416,8976 Z"/>
 <path fill="rgb(255,211,32)" stroke="none" d="M 6983,8893 L 7108,9143 7233,8893 6983,8893 Z"/>
 <path fill="none" stroke="rgb(255,211,32)" stroke-linejoin="round" d="M 6983,8893 L 7108,9143 7233,8893 6983,8893 Z"/>
 <path fill="rgb(255,211,32)" stroke="none" d="M 8550,8832 L 8675,9082 8800,8832 8550,8832 Z"/>
 <path fill="none" stroke="rgb(255,211,32)" stroke-linejoin="round" d="M 8550,8832 L 8675,9082 8800,8832 8550,8832 Z"/>
 <path fill="rgb(255,211,32)" stroke="none" d="M 10117,8689 L 10241,8939 10366,8689 10117,8689 Z"/>
 <path fill="none" stroke="rgb(255,211,32)" stroke-linejoin="round" d="M 10117,8689 L 10241,8939 10366,8689 10117,8689 Z"/>
 <path fill="rgb(255,211,32)" stroke="none" d="M 11683,8652 L 11808,8902 11933,8652 11683,8652 Z"/>
 <path fill="none" stroke="rgb(255,211,32)" stroke-linejoin="round" d="M 11683,8652 L 11808,8902 11933,8652 11683,8652 Z"/>
 <path fill="rgb(255,211,32)" stroke="none" d="M 13250,7539 L 13375,7789 13500,7539 13250,7539 Z"/>
 <path fill="none" stroke="rgb(255,211,32)" stroke-linejoin="round" d="M 13250,7539 L 13375,7789 13500,7539 13250,7539 Z"/>
 <path fill="rgb(255,211,32)" stroke="none" d="M 14817,6897 L 14942,7147 15067,6897 14817,6897 Z"/>
 <path fill="none" stroke="rgb(255,211,32)" stroke-linejoin="round" d="M 14817,6897 L 14942,7147 15067,6897 14817,6897 Z"/>
 <path fill="rgb(255,211,32)" stroke="none" d="M 16384,7168 L 16509,7418 16634,7168 16384,7168 Z"/>
 <path fill="none" stroke="rgb(255,211,32)" stroke-linejoin="round" d="M 16384,7168 L 16509,7418 16634,7168 16384,7168 Z"/>
 <path fill="none" stroke="rgb(87,157,28)" stroke-width="80" stroke-linejoin="round" d="M 2408,8263 L 3974,8101 5541,9017 7108,9132 8675,9113 10241,9134 11808,9005 13375,9048 14942,8130 16509,8956"/>
 <path fill="rgb(87,157,28)" stroke="none" d="M 2283,8388 L 2533,8388 2408,8138 2283,8388 Z"/>
 <path fill="none" stroke="rgb(87,157,28)" stroke-linejoin="round" d="M 2283,8388 L 2533,8388 2408,8138 2283,8388 Z"/>
 <path fill="rgb(87,157,28)" stroke="none" d="M 3849,8226 L 4099,8226 3974,7976 3849,8226 Z"/>
 <path fill="none" stroke="rgb(87,157,28)" stroke-linejoin="round" d="M 3849,8226 L 4099,8226 3974,7976 3849,8226 Z"/>
 <path fill="rgb(87,157,28)" stroke="none" d="M 5416,9142 L 5666,9142 5541,8892 5416,9142 Z"/>
 <path fill="none" stroke="rgb(87,157,28)" stroke-linejoin="round" d="M 5416,9142 L 5666,9142 5541,8892 5416,9142 Z"/>
 <path fill="rgb(87,157,28)" stroke="none" d="M 6983,9257 L 7233,9257 7108,9007 6983,9257 Z"/>
 <path fill="none" stroke="rgb(87,157,28)" stroke-linejoin="round" d="M 6983,9257 L 7233,9257 7108,9007 6983,9257 Z"/>
 <path fill="rgb(87,157,28)" stroke="none" d="M 8550,9238 L 8800,9238 8675,8988 8550,9238 Z"/>
 <path fill="none" stroke="rgb(87,157,28)" stroke-linejoin="round" d="M 8550,9238 L 8800,9238 8675,8988 8550,9238 Z"/>
 <path fill="rgb(87,157,28)" stroke="none" d="M 10117,9259 L 10366,9259 10241,9009 10117,9259 Z"/>
 <path fill="none" stroke="rgb(87,157,28)" stroke-linejoin="round" d="M 10117,9259 L 10366,9259 10241,9009 10117,9259 Z"/>
 <path fill="rgb(87,157,28)" stroke="none" d="M 11683,9130 L 11933,9130 11808,8880 11683,9130 Z"/>
 <path fill="none" stroke="rgb(87,157,28)" stroke-linejoin="round" d="M 11683,9130 L 11933,9130 11808,8880 11683,9130 Z"/>
 <path fill="rgb(87,157,28)" stroke="none" d="M 13250,9173 L 13500,9173 13375,8923 13250,9173 Z"/>
 <path fill="none" stroke="rgb(87,157,28)" stroke-linejoin="round" d="M 13250,9173 L 13500,9173 13375,8923 13250,9173 Z"/>
 <path fill="rgb(87,157,28)" stroke="none" d="M 14817,8255 L 15067,8255 14942,8005 14817,8255 Z"/>
 <path fill="none" stroke="rgb(87,157,28)" stroke-linejoin="round" d="M 14817,8255 L 15067,8255 14942,8005 14817,8255 Z"/>
 <path fill="rgb(87,157,28)" stroke="none" d="M 16384,9081 L 16634,9081 16509,8831 16384,9081 Z"/>
 <path fill="none" stroke="rgb(87,157,28)" stroke-linejoin="round" d="M 16384,9081 L 16634,9081 16509,8831 16384,9081 Z"/>
 <path fill="none" stroke="rgb(126,0,33)" stroke-width="80" stroke-linejoin="round" d="M 2408,4270 L 3974,3560 5541,6307 7108,5363 8675,5796 10241,5327 11808,5746 13375,2106 14942,1428 16509,1080"/>
 <path fill="rgb(126,0,33)" stroke="none" d="M 2283,4145 L 2283,4395 2533,4270 2283,4145 Z"/>
 <path fill="none" stroke="rgb(126,0,33)" stroke-linejoin="round" d="M 2283,4145 L 2283,4395 2533,4270 2283,4145 Z"/>
 <path fill="rgb(126,0,33)" stroke="none" d="M 3849,3435 L 3849,3685 4099,3560 3849,3435 Z"/>
 <path fill="none" stroke="rgb(126,0,33)" stroke-linejoin="round" d="M 3849,3435 L 3849,3685 4099,3560 3849,3435 Z"/>
 <path fill="rgb(126,0,33)" stroke="none" d="M 5416,6183 L 5416,6432 5666,6307 5416,6183 Z"/>
 <path fill="none" stroke="rgb(126,0,33)" stroke-linejoin="round" d="M 5416,6183 L 5416,6432 5666,6307 5416,6183 Z"/>
 <path fill="rgb(126,0,33)" stroke="none" d="M 6983,5238 L 6983,5488 7233,5363 6983,5238 Z"/>
 <path fill="none" stroke="rgb(126,0,33)" stroke-linejoin="round" d="M 6983,5238 L 6983,5488 7233,5363 6983,5238 Z"/>
 <path fill="rgb(126,0,33)" stroke="none" d="M 8550,5671 L 8550,5921 8800,5796 8550,5671 Z"/>
 <path fill="none" stroke="rgb(126,0,33)" stroke-linejoin="round" d="M 8550,5671 L 8550,5921 8800,5796 8550,5671 Z"/>
 <path fill="rgb(126,0,33)" stroke="none" d="M 10117,5202 L 10117,5452 10366,5327 10117,5202 Z"/>
 <path fill="none" stroke="rgb(126,0,33)" stroke-linejoin="round" d="M 10117,5202 L 10117,5452 10366,5327 10117,5202 Z"/>
 <path fill="rgb(126,0,33)" stroke="none" d="M 11683,5621 L 11683,5871 11933,5746 11683,5621 Z"/>
 <path fill="none" stroke="rgb(126,0,33)" stroke-linejoin="round" d="M 11683,5621 L 11683,5871 11933,5746 11683,5621 Z"/>
 <path fill="rgb(126,0,33)" stroke="none" d="M 13250,1981 L 13250,2231 13500,2106 13250,1981 Z"/>
 <path fill="none" stroke="rgb(126,0,33)" stroke-linejoin="round" d="M 13250,1981 L 13250,2231 13500,2106 13250,1981 Z"/>
 <path fill="rgb(126,0,33)" stroke="none" d="M 14817,1303 L 14817,1553 15067,1428 14817,1303 Z"/>
 <path fill="none" stroke="rgb(126,0,33)" stroke-linejoin="round" d="M 14817,1303 L 14817,1553 15067,1428 14817,1303 Z"/>
 <path fill="rgb(126,0,33)" stroke="none" d="M 16384,955 L 16384,1205 16634,1080 16384,955 Z"/>
 <path fill="none" stroke="rgb(126,0,33)" stroke-linejoin="round" d="M 16384,955 L 16384,1205 16634,1080 16384,955 Z"/>
 <path fill="none" stroke="rgb(131,202,255)" stroke-width="80" stroke-linejoin="round" d="M 2408,4270 L 3974,2913 5541,4590 7108,6224 8675,6726 10241,6838 11808,6672 13375,6243 14942,6478 16509,6176"/>
 <path fill="rgb(131,202,255)" stroke="none" d="M 2283,4270 L 2533,4395 2533,4145 2283,4270 Z"/>
 <path fill="none" stroke="rgb(131,202,255)" stroke-linejoin="round" d="M 2283,4270 L 2533,4395 2533,4145 2283,4270 Z"/>
 <path fill="rgb(131,202,255)" stroke="none" d="M 3849,2913 L 4099,3038 4099,2788 3849,2913 Z"/>
 <path fill="none" stroke="rgb(131,202,255)" stroke-linejoin="round" d="M 3849,2913 L 4099,3038 4099,2788 3849,2913 Z"/>
 <path fill="rgb(131,202,255)" stroke="none" d="M 5416,4590 L 5666,4715 5666,4465 5416,4590 Z"/>
 <path fill="none" stroke="rgb(131,202,255)" stroke-linejoin="round" d="M 5416,4590 L 5666,4715 5666,4465 5416,4590 Z"/>
 <path fill="rgb(131,202,255)" stroke="none" d="M 6983,6224 L 7233,6349 7233,6100 6983,6224 Z"/>
 <path fill="none" stroke="rgb(131,202,255)" stroke-linejoin="round" d="M 6983,6224 L 7233,6349 7233,6100 6983,6224 Z"/>
 <path fill="rgb(131,202,255)" stroke="none" d="M 8550,6726 L 8800,6851 8800,6601 8550,6726 Z"/>
 <path fill="none" stroke="rgb(131,202,255)" stroke-linejoin="round" d="M 8550,6726 L 8800,6851 8800,6601 8550,6726 Z"/>
 <path fill="rgb(131,202,255)" stroke="none" d="M 10117,6838 L 10366,6963 10366,6713 10117,6838 Z"/>
 <path fill="none" stroke="rgb(131,202,255)" stroke-linejoin="round" d="M 10117,6838 L 10366,6963 10366,6713 10117,6838 Z"/>
 <path fill="rgb(131,202,255)" stroke="none" d="M 11683,6672 L 11933,6797 11933,6547 11683,6672 Z"/>
 <path fill="none" stroke="rgb(131,202,255)" stroke-linejoin="round" d="M 11683,6672 L 11933,6797 11933,6547 11683,6672 Z"/>
 <path fill="rgb(131,202,255)" stroke="none" d="M 13250,6243 L 13500,6368 13500,6119 13250,6243 Z"/>
 <path fill="none" stroke="rgb(131,202,255)" stroke-linejoin="round" d="M 13250,6243 L 13500,6368 13500,6119 13250,6243 Z"/>
 <path fill="rgb(131,202,255)" stroke="none" d="M 14817,6478 L 15067,6603 15067,6353 14817,6478 Z"/>
 <path fill="none" stroke="rgb(131,202,255)" stroke-linejoin="round" d="M 14817,6478 L 15067,6603 15067,6353 14817,6478 Z"/>
 <path fill="rgb(131,202,255)" stroke="none" d="M 16384,6176 L 16634,6300 16634,6051 16384,6176 Z"/>
 <path fill="none" stroke="rgb(131,202,255)" stroke-linejoin="round" d="M 16384,6176 L 16634,6300 16634,6051 16384,6176 Z"/>
 <text class="TextShape"><tspan class="TextParagraph" font-family="Liberation Sans" font-size="353px" font-weight="400"><tspan class="TextPosition" x="2315" y="11085"><tspan fill="rgb(0,0,0)" stroke="none">0</tspan></tspan></tspan></text>
 <text class="TextShape"><tspan class="TextParagraph" font-family="Liberation Sans" font-size="353px" font-weight="400"><tspan class="TextPosition" x="3881" y="11085"><tspan fill="rgb(0,0,0)" stroke="none">1</tspan></tspan></tspan></text>
 <text class="TextShape"><tspan class="TextParagraph" font-family="Liberation Sans" font-size="353px" font-weight="400"><tspan class="TextPosition" x="5448" y="11085"><tspan fill="rgb(0,0,0)" stroke="none">2</tspan></tspan></tspan></text>
 <text class="TextShape"><tspan class="TextParagraph" font-family="Liberation Sans" font-size="353px" font-weight="400"><tspan class="TextPosition" x="7015" y="11085"><tspan fill="rgb(0,0,0)" stroke="none">3</tspan></tspan></tspan></text>
 <text class="TextShape"><tspan class="TextParagraph" font-family="Liberation Sans" font-size="353px" font-weight="400"><tspan class="TextPosition" x="8582" y="11085"><tspan fill="rgb(0,0,0)" stroke="none">4</tspan></tspan></tspan></text>
 <text class="TextShape"><tspan class="TextParagraph" font-family="Liberation Sans" font-size="353px" font-weight="400"><tspan class="TextPosition" x="10149" y="11085"><tspan fill="rgb(0,0,0)" stroke="none">6</tspan></tspan></tspan></text>
 <text class="TextShape"><tspan class="TextParagraph" font-family="Liberation Sans" font-size="353px" font-weight="400"><tspan class="TextPosition" x="11716" y="11085"><tspan fill="rgb(0,0,0)" stroke="none">8</tspan></tspan></tspan></text>
 <text class="TextShape"><tspan class="TextParagraph" font-family="Liberation Sans" font-size="353px" font-weight="400"><tspan class="TextPosition" x="13191" y="11085"><tspan fill="rgb(0,0,0)" stroke="none">16</tspan></tspan></tspan></text>
 <text class="TextShape"><tspan class="TextParagraph" font-family="Liberation Sans" font-size="353px" font-weight="400"><tspan class="TextPosition" x="14758" y="11085"><tspan fill="rgb(0,0,0)" stroke="none">24</tspan></tspan></tspan></text>
 <text class="TextShape"><tspan class="TextParagraph" font-family="Liberation Sans" font-size="353px" font-weight="400"><tspan class="TextPosition" x="16325" y="11085"><tspan fill="rgb(0,0,0)" stroke="none">32</tspan></tspan></tspan></text>
 <text class="TextShape"><tspan class="TextParagraph" font-family="Liberation Sans" font-size="353px" font-weight="400"><tspan class="TextPosition" x="1973" y="10638"><tspan fill="rgb(0,0,0)" stroke="none">0</tspan></tspan></tspan></text>
 <text class="TextShape"><tspan class="TextParagraph" font-family="Liberation Sans" font-size="353px" font-weight="400"><tspan class="TextPosition" x="1602" y="9630"><tspan fill="rgb(0,0,0)" stroke="none">100</tspan></tspan></tspan></text>
 <text class="TextShape"><tspan class="TextParagraph" font-family="Liberation Sans" font-size="353px" font-weight="400"><tspan class="TextPosition" x="1602" y="8623"><tspan fill="rgb(0,0,0)" stroke="none">200</tspan></tspan></tspan></text>
 <text class="TextShape"><tspan class="TextParagraph" font-family="Liberation Sans" font-size="353px" font-weight="400"><tspan class="TextPosition" x="1602" y="7616"><tspan fill="rgb(0,0,0)" stroke="none">300</tspan></tspan></tspan></text>
 <text class="TextShape"><tspan class="TextParagraph" font-family="Liberation Sans" font-size="353px" font-weight="400"><tspan class="TextPosition" x="1602" y="6608"><tspan fill="rgb(0,0,0)" stroke="none">400</tspan></tspan></tspan></text>
 <text class="TextShape"><tspan class="TextParagraph" font-family="Liberation Sans" font-size="353px" font-weight="400"><tspan class="TextPosition" x="1602" y="5601"><tspan fill="rgb(0,0,0)" stroke="none">500</tspan></tspan></tspan></text>
 <text class="TextShape"><tspan class="TextParagraph" font-family="Liberation Sans" font-size="353px" font-weight="400"><tspan class="TextPosition" x="1602" y="4594"><tspan fill="rgb(0,0,0)" stroke="none">600</tspan></tspan></tspan></text>
 <text class="TextShape"><tspan class="TextParagraph" font-family="Liberation Sans" font-size="353px" font-weight="400"><tspan class="TextPosition" x="1602" y="3586"><tspan fill="rgb(0,0,0)" stroke="none">700</tspan></tspan></tspan></text>
 <text class="TextShape"><tspan class="TextParagraph" font-family="Liberation Sans" font-size="353px" font-weight="400"><tspan class="TextPosition" x="1602" y="2579"><tspan fill="rgb(0,0,0)" stroke="none">800</tspan></tspan></tspan></text>
 <text class="TextShape"><tspan class="TextParagraph" font-family="Liberation Sans" font-size="353px" font-weight="400"><tspan class="TextPosition" x="1602" y="1572"><tspan fill="rgb(0,0,0)" stroke="none">900</tspan></tspan></tspan></text>
 <text class="TextShape"><tspan class="TextParagraph" font-family="Liberation Sans" font-size="353px" font-weight="400"><tspan class="TextPosition" x="1417" y="565"><tspan fill="rgb(0,0,0)" stroke="none">1000</tspan></tspan></tspan></text>
 <path fill="none" stroke="rgb(0,69,134)" stroke-width="80" stroke-linejoin="round" d="M 17216,4951 L 18016,4951"/>
 <path fill="rgb(0,69,134)" stroke="none" d="M 17510,4846 L 17510,5056 17721,5056 17721,4846 17510,4846 Z"/>
 <path fill="none" stroke="rgb(0,69,134)" stroke-linejoin="round" d="M 17510,4846 L 17510,5056 17721,5056 17721,4846 17510,4846 Z"/>
 <path fill="none" stroke="rgb(255,66,14)" stroke-width="80" stroke-linejoin="round" d="M 17216,5449 L 18016,5449"/>
 <path fill="rgb(255,66,14)" stroke="none" d="M 17510,5449 L 17616,5554 17721,5449 17616,5344 17510,5449 Z"/>
 <path fill="none" stroke="rgb(255,66,14)" stroke-linejoin="round" d="M 17510,5449 L 17616,5554 17721,5449 17616,5344 17510,5449 Z"/>
 <path fill="none" stroke="rgb(255,211,32)" stroke-width="80" stroke-linejoin="round" d="M 17216,5947 L 18016,5947"/>
 <path fill="rgb(255,211,32)" stroke="none" d="M 17510,5842 L 17616,6052 17721,5842 17510,5842 Z"/>
 <path fill="none" stroke="rgb(255,211,32)" stroke-linejoin="round" d="M 17510,5842 L 17616,6052 17721,5842 17510,5842 Z"/>
 <path fill="none" stroke="rgb(87,157,28)" stroke-width="80" stroke-linejoin="round" d="M 17216,6444 L 18016,6444"/>
 <path fill="rgb(87,157,28)" stroke="none" d="M 17510,6549 L 17721,6549 17616,6339 17510,6549 Z"/>
 <path fill="none" stroke="rgb(87,157,28)" stroke-linejoin="round" d="M 17510,6549 L 17721,6549 17616,6339 17510,6549 Z"/>
 <path fill="none" stroke="rgb(126,0,33)" stroke-width="80" stroke-linejoin="round" d="M 17216,6942 L 18016,6942"/>
 <path fill="rgb(126,0,33)" stroke="none" d="M 17510,6837 L 17510,7047 17721,6942 17510,6837 Z"/>
 <path fill="none" stroke="rgb(126,0,33)" stroke-linejoin="round" d="M 17510,6837 L 17510,7047 17721,6942 17510,6837 Z"/>
 <path fill="none" stroke="rgb(131,202,255)" stroke-width="80" stroke-linejoin="round" d="M 17216,7440 L 18016,7440"/>
 <path fill="rgb(131,202,255)" stroke="none" d="M 17510,7440 L 17721,7545 17721,7335 17510,7440 Z"/>
 <path fill="none" stroke="rgb(131,202,255)" stroke-linejoin="round" d="M 17510,7440 L 17721,7545 17721,7335 17510,7440 Z"/>
 <text class="TextShape"><tspan class="TextParagraph" font-family="Liberation Sans" font-size="353px" font-weight="400"><tspan class="TextPosition" x="18116" y="5071"><tspan fill="rgb(0,0,0)" stroke="none">1000POSIX</tspan></tspan></tspan></text>
 <text class="TextShape"><tspan class="TextParagraph" font-family="Liberation Sans" font-size="353px" font-weight="400"><tspan class="TextPosition" x="18116" y="5569"><tspan fill="rgb(0,0,0)" stroke="none">1000MP</tspan></tspan></tspan></text>
 <text class="TextShape"><tspan class="TextParagraph" font-family="Liberation Sans" font-size="353px" font-weight="400"><tspan class="TextPosition" x="18116" y="6067"><tspan fill="rgb(0,0,0)" stroke="none">3000POSIX</tspan></tspan></tspan></text>
 <text class="TextShape"><tspan class="TextParagraph" font-family="Liberation Sans" font-size="353px" font-weight="400"><tspan class="TextPosition" x="18116" y="6564"><tspan fill="rgb(0,0,0)" stroke="none">3000MP</tspan></tspan></tspan></text>
 <text class="TextShape"><tspan class="TextParagraph" font-family="Liberation Sans" font-size="353px" font-weight="400"><tspan class="TextPosition" x="18116" y="7062"><tspan fill="rgb(0,0,0)" stroke="none">5000POSIX</tspan></tspan></tspan></text>
 <text class="TextShape"><tspan class="TextParagraph" font-family="Liberation Sans" font-size="353px" font-weight="400"><tspan class="TextPosition" x="18116" y="7560"><tspan fill="rgb(0,0,0)" stroke="none">5000MP</tspan></tspan></tspan></text>
 <text class="TextShape"><tspan class="TextParagraph" font-family="Liberation Sans" font-size="318px" font-weight="400"><tspan class="TextPosition" x="8103" y="11799"><tspan fill="rgb(0,0,0)" stroke="none">n_of_threads</tspan></tspan></tspan></text>
 <text class="TextShape"><tspan class="TextParagraph" font-family="Liberation Sans" font-size="318px" font-weight="400"><tspan class="TextPosition" x="837" y="6499" transform="translate(837,6499) rotate(-90) translate(-837,-6499)"><tspan fill="rgb(0,0,0)" stroke="none">Matrix Size</tspan></tspan></tspan></text>
</svg>