<?xml version="1.0" encoding="UTF-8"?>
<!DOCTYPE svg PUBLIC "-//W3C//DTD SVG 1.1//EN" "http://www.w3.org/Graphics/SVG/1.1/DTD/svg11.dtd">
<svg width="160mm" height="90mm" viewBox="0 0 16000 9000" version="1.1" baseProfile="tiny" xmlns="http://www.w3.org/2000/svg" stroke-width="28.222" stroke-linejoin="round" xml:space="preserve">
 <path fill="rgb(255,255,255)" stroke="none" d="M 8000,8999 L 0,8999 0,0 15999,0 15999,8999 8000,8999 Z"/>
 <path fill="none" stroke="rgb(179,179,179)" stroke-linejoin="round" d="M 7773,7191 L 2138,7191 2138,379 13407,379 13407,7191 7773,7191 Z"/>
 <path fill="none" stroke="rgb(179,179,179)" stroke-linejoin="round" d="M 2138,378 L 2138,7190"/>
 <path fill="none" stroke="rgb(179,179,179)" stroke-linejoin="round" d="M 3748,378 L 3748,7190"/>
 <path fill="none" stroke="rgb(179,179,179)" stroke-linejoin="round" d="M 5358,378 L 5358,7190"/>
 <path fill="none" stroke="rgb(179,179,179)" stroke-linejoin="round" d="M 6968,378 L 6968,7190"/>
 <path fill="none" stroke="rgb(179,179,179)" stroke-linejoin="round" d="M 8577,378 L 8577,7190"/>
 <path fill="none" stroke="rgb(179,179,179)" stroke-linejoin="round" d="M 10187,378 L 10187,7190"/>
 <path fill="none" stroke="rgb(179,179,179)" stroke-linejoin="round" d="M 11797,378 L 11797,7190"/>
 <path fill="none" stroke="rgb(179,179,179)" stroke-linejoin="round" d="M 13407,378 L 13407,7190"/>
 <path fill="none" stroke="rgb(179,179,179)" stroke-linejoin="round" d="M 13407,7190 L 2138,7190"/>
 <path fill="none" stroke="rgb(179,179,179)" stroke-linejoin="round" d="M 13407,6338 L 2138,6338"/>
 <path fill="none" stroke="rgb(179,179,179)" stroke-linejoin="round" d="M 13407,5486 L 2138,5486"/>
 <path fill="none" stroke="rgb(179,179,179)" stroke-linejoin="round" d="M 13407,4635 L 2138,4635"/>
 <path fill="none" stroke="rgb(179,179,179)" stroke-linejoin="round" d="M 13407,3784 L 2138,3784"/>
 <path fill="none" stroke="rgb(179,179,179)" stroke-linejoin="round" d="M 13407,2932 L 2138,2932"/>
 <path fill="none" stroke="rgb(179,179,179)" stroke-linejoin="round" d="M 13407,2081 L 2138,2081"/>
 <path fill="none" stroke="rgb(179,179,179)" stroke-linejoin="round" d="M 13407,1229 L 2138,1229"/>
 <path fill="none" stroke="rgb(179,179,179)" stroke-linejoin="round" d="M 13407,378 L 2138,378"/>
 <path fill="none" stroke="rgb(179,179,179)" stroke-linejoin="round" d="M 2138,7340 L 2138,7190"/>
 <path fill="none" stroke="rgb(179,179,179)" stroke-linejoin="round" d="M 2138,7340 L 2138,7190"/>
 <path fill="none" stroke="rgb(179,179,179)" stroke-linejoin="round" d="M 3748,7340 L 3748,7190"/>
 <path fill="none" stroke="rgb(179,179,179)" stroke-linejoin="round" d="M 3748,7340 L 3748,7190"/>
 <path fill="none" stroke="rgb(179,179,179)" stroke-linejoin="round" d="M 5358,7340 L 5358,7190"/>
 <path fill="none" stroke="rgb(179,179,179)" stroke-linejoin="round" d="M 5358,7340 L 5358,7190"/>
 <path fill="none" stroke="rgb(179,179,179)" stroke-linejoin="round" d="M 6968,7340 L 6968,7190"/>
 <path fill="none" stroke="rgb(179,179,179)" stroke-linejoin="round" d="M 6968,7340 L 6968,7190"/>
 <path fill="none" stroke="rgb(179,179,179)" stroke-linejoin="round" d="M 8577,7340 L 8577,7190"/>
 <path fill="none" stroke="rgb(179,179,179)" stroke-linejoin="round" d="M 8577,7340 L 8577,7190"/>
 <path fill="none" stroke="rgb(179,179,179)" stroke-linejoin="round" d="M 10187,7340 L 10187,7190"/>
 <path fill="none" stroke="rgb(179,179,179)" stroke-linejoin="round" d="M 10187,7340 L 10187,7190"/>
 <path fill="none" stroke="rgb(179,179,179)" stroke-linejoin="round" d="M 11797,7340 L 11797,7190"/>
 <path fill="none" stroke="rgb(179,179,179)" stroke-linejoin="round" d="M 11797,7340 L 11797,7190"/>
 <path fill="none" stroke="rgb(179,179,179)" stroke-linejoin="round" d="M 13407,7340 L 13407,7190"/>
 <path fill="none" stroke="rgb(179,179,179)" stroke-linejoin="round" d="M 13407,7340 L 13407,7190"/>
 <path fill="none" stroke="rgb(179,179,179)" stroke-linejoin="round" d="M 2138,7190 L 13407,7190"/>
 <path fill="none" stroke="rgb(179,179,179)" stroke-linejoin="round" d="M 1988,7190 L 2138,7190"/>
 <path fill="none" stroke="rgb(179,179,179)" stroke-linejoin="round" d="M 1988,7190 L 2138,7190"/>
 <path fill="none" stroke="rgb(179,179,179)" stroke-linejoin="round" d="M 1988,6338 L 2138,6338"/>
 <path fill="none" stroke="rgb(179,179,179)" stroke-linejoin="round" d="M 1988,6338 L 2138,6338"/>
 <path fill="none" stroke="rgb(179,179,179)" stroke-linejoin="round" d="M 1988,5486 L 2138,5486"/>
 <path fill="none" stroke="rgb(179,179,179)" stroke-linejoin="round" d="M 1988,5486 L 2138,5486"/>
 <path fill="none" stroke="rgb(179,179,179)" stroke-linejoin="round" d="M 1988,4635 L 2138,4635"/>
 <path fill="none" stroke="rgb(179,179,179)" stroke-linejoin="round" d="M 1988,4635 L 2138,4635"/>
 <path fill="none" stroke="rgb(179,179,179)" stroke-linejoin="round" d="M 1988,3784 L 2138,3784"/>
 <path fill="none" stroke="rgb(179,179,179)" stroke-linejoin="round" d="M 1988,3784 L 2138,3784"/>
 <path fill="none" stroke="rgb(179,179,179)" stroke-linejoin="round" d="M 1988,2932 L 2138,2932"/>
 <path fill="none" stroke="rgb(179,179,179)" stroke-linejoin="round" d="M 1988,2932 L 2138,2932"/>
 <path fill="none" stroke="rgb(179,179,179)" stroke-linejoin="round" d="M 1988,2081 L 2138,2081"/>
 <path fill="none" stroke="rgb(179,179,179)" stroke-linejoin="round" d="M 1988,2081 L 2138,2081"/>
 <path fill="none" stroke="rgb(179,179,179)" stroke-linejoin="round" d="M 1988,1229 L 2138,1229"/>
 <path fill="none" stroke="rgb(179,179,179)" stroke-linejoin="round" d="M 1988,1229 L 2138,1229"/>
 <path fill="none" stroke="rgb(179,179,179)" stroke-linejoin="round" d="M 1988,378 L 2138,378"/>
 <path fill="none" stroke="rgb(179,179,179)" stroke-linejoin="round" d="M 1988,378 L 2138,378"/>
 <path fill="none" stroke="rgb(179,179,179)" stroke-linejoin="round" d="M 2138,7190 L 2138,378"/>
 <path fill="none" stroke="rgb(174,207,0)" stroke-width="80" stroke-linejoin="round" d="M 2138,1510 L 2460,1233 2782,3470 3104,4586 3426,4342 4070,4731 4714,4005 7290,4169 9865,4847 12441,4896"/>
 <path fill="rgb(174,207,0)" stroke="none" d="M 2013,1635 L 2263,1635 2013,1385 2263,1385 2013,1635 Z"/>
 <path fill="none" stroke="rgb(174,207,0)" stroke-linejoin="round" d="M 2013,1635 L 2263,1635 2013,1385 2263,1385 2013,1635 Z"/>
 <path fill="rgb(174,207,0)" stroke="none" d="M 2335,1358 L 2585,1358 2335,1108 2585,1108 2335,1358 Z"/>
 <path fill="none" stroke="rgb(174,207,0)" stroke-linejoin="round" d="M 2335,1358 L 2585,1358 2335,1108 2585,1108 2335,1358 Z"/>
 <path fill="rgb(174,207,0)" stroke="none" d="M 2657,3595 L 2907,3595 2657,3345 2907,3345 2657,3595 Z"/>
 <path fill="none" stroke="rgb(174,207,0)" stroke-linejoin="round" d="M 2657,3595 L 2907,3595 2657,3345 2907,3345 2657,3595 Z"/>
 <path fill="rgb(174,207,0)" stroke="none" d="M 2979,4711 L 3229,4711 2979,4462 3229,4462 2979,4711 Z"/>
 <path fill="none" stroke="rgb(174,207,0)" stroke-linejoin="round" d="M 2979,4711 L 3229,4711 2979,4462 3229,4462 2979,4711 Z"/>
 <path fill="rgb(174,207,0)" stroke="none" d="M 3301,4467 L 3551,4467 3301,4217 3551,4217 3301,4467 Z"/>
 <path fill="none" stroke="rgb(174,207,0)" stroke-linejoin="round" d="M 3301,4467 L 3551,4467 3301,4217 3551,4217 3301,4467 Z"/>
 <path fill="rgb(174,207,0)" stroke="none" d="M 3945,4856 L 4195,4856 3945,4606 4195,4606 3945,4856 Z"/>
 <path fill="none" stroke="rgb(174,207,0)" stroke-linejoin="round" d="M 3945,4856 L 4195,4856 3945,4606 4195,4606 3945,4856 Z"/>
 <path fill="rgb(174,207,0)" stroke="none" d="M 4589,4130 L 4839,4130 4589,3880 4839,3880 4589,4130 Z"/>
 <path fill="none" stroke="rgb(174,207,0)" stroke-linejoin="round" d="M 4589,4130 L 4839,4130 4589,3880 4839,3880 4589,4130 Z"/>
 <path fill="rgb(174,207,0)" stroke="none" d="M 7165,4294 L 7415,4294 7165,4044 7415,4044 7165,4294 Z"/>
 <path fill="none" stroke="rgb(174,207,0)" stroke-linejoin="round" d="M 7165,4294 L 7415,4294 7165,4044 7415,4044 7165,4294 Z"/>
 <path fill="rgb(174,207,0)" stroke="none" d="M 9740,4972 L 9990,4972 9740,4722 9990,4722 9740,4972 Z"/>
 <path fill="none" stroke="rgb(174,207,0)" stroke-linejoin="round" d="M 9740,4972 L 9990,4972 9740,4722 9990,4722 9740,4972 Z"/>
 <path fill="rgb(174,207,0)" stroke="none" d="M 12316,5021 L 12566,5021 12316,4771 12566,4771 12316,5021 Z"/>
 <path fill="none" stroke="rgb(174,207,0)" stroke-linejoin="round" d="M 12316,5021 L 12566,5021 12316,4771 12566,4771 12316,5021 Z"/>
 <path fill="none" stroke="rgb(49,64,4)" stroke-width="80" stroke-linejoin="round" d="M 2138,4751 L 2460,5050 2782,5701 3104,6225 3426,6161 4070,6259 4714,6115 7290,6047 9865,6325 12441,6319"/>
 <path fill="rgb(49,64,4)" stroke="none" d="M 2013,4626 L 2013,4876 2263,4626 2263,4876 2013,4626 Z"/>
 <path fill="none" stroke="rgb(49,64,4)" stroke-linejoin="round" d="M 2013,4626 L 2013,4876 2263,4626 2263,4876 2013,4626 Z"/>
 <path fill="rgb(49,64,4)" stroke="none" d="M 2335,4925 L 2335,5175 2585,4925 2585,5175 2335,4925 Z"/>
 <path fill="none" stroke="rgb(49,64,4)" stroke-linejoin="round" d="M 2335,4925 L 2335,5175 2585,4925 2585,5175 2335,4925 Z"/>
 <path fill="rgb(49,64,4)" stroke="none" d="M 2657,5576 L 2657,5826 2907,5576 2907,5826 2657,5576 Z"/>
 <path fill="none" stroke="rgb(49,64,4)" stroke-linejoin="round" d="M 2657,5576 L 2657,5826 2907,5576 2907,5826 2657,5576 Z"/>
 <path fill="rgb(49,64,4)" stroke="none" d="M 2979,6100 L 2979,6350 3229,6100 3229,6350 2979,6100 Z"/>
 <path fill="none" stroke="rgb(49,64,4)" stroke-linejoin="round" d="M 2979,6100 L 2979,6350 3229,6100 3229,6350 2979,6100 Z"/>
 <path fill="rgb(49,64,4)" stroke="none" d="M 3301,6036 L 3301,6286 3551,6036 3551,6286 3301,6036 Z"/>
 <path fill="none" stroke="rgb(49,64,4)" stroke-linejoin="round" d="M 3301,6036 L 3301,6286 3551,6036 3551,6286 3301,6036 Z"/>
 <path fill="rgb(49,64,4)" stroke="none" d="M 3945,6134 L 3945,6384 4195,6134 4195,6384 3945,6134 Z"/>
 <path fill="none" stroke="rgb(49,64,4)" stroke-linejoin="round" d="M 3945,6134 L 3945,6384 4195,6134 4195,6384 3945,6134 Z"/>
 <path fill="rgb(49,64,4)" stroke="none" d="M 4589,5990 L 4589,6240 4839,5990 4839,6240 4589,5990 Z"/>
 <path fill="none" stroke="rgb(49,64,4)" stroke-linejoin="round" d="M 4589,5990 L 4589,6240 4839,5990 4839,6240 4589,5990 Z"/>
 <path fill="rgb(49,64,4)" stroke="none" d="M 7165,5922 L 7165,6172 7415,5922 7415,6172 7165,5922 Z"/>
 <path fill="none" stroke="rgb(49,64,4)" stroke-linejoin="round" d="M 7165,5922 L 7165,6172 7415,5922 7415,6172 7165,5922 Z"/>
 <path fill="rgb(49,64,4)" stroke="none" d="M 9740,6200 L 9740,6450 9990,6200 9990,6450 9740,6200 Z"/>
 <path fill="none" stroke="rgb(49,64,4)" stroke-linejoin="round" d="M 9740,6200 L 9740,6450 9990,6200 9990,6450 9740,6200 Z"/>
 <path fill="rgb(49,64,4)" stroke="none" d="M 12316,6194 L 12316,6444 12566,6194 12566,6444 12316,6194 Z"/>
 <path fill="none" stroke="rgb(49,64,4)" stroke-linejoin="round" d="M 12316,6194 L 12316,6444 12566,6194 12566,6444 12316,6194 Z"/>
 <path fill="none" stroke="rgb(131,202,255)" stroke-width="80" stroke-linejoin="round" d="M 2138,6928 L 2460,6836 2782,7021 3104,7057 3426,7082 4070,7091 4714,7065 7290,7066 9865,7059 12441,7049"/>
 <path fill="rgb(131,202,255)" stroke="none" d="M 2013,6928 L 2263,7053 2263,6803 2013,6928 Z"/>
 <path fill="none" stroke="rgb(131,202,255)" stroke-linejoin="round" d="M 2013,6928 L 2263,7053 2263,6803 2013,6928 Z"/>
 <path fill="rgb(131,202,255)" stroke="none" d="M 2335,6836 L 2585,6961 2585,6711 2335,6836 Z"/>
 <path fill="none" stroke="rgb(131,202,255)" stroke-linejoin="round" d="M 2335,6836 L 2585,6961 2585,6711 2335,6836 Z"/>
 <path fill="rgb(131,202,255)" stroke="none" d="M 2657,7021 L 2907,7146 2907,6896 2657,7021 Z"/>
 <path fill="none" stroke="rgb(131,202,255)" stroke-linejoin="round" d="M 2657,7021 L 2907,7146 2907,6896 2657,7021 Z"/>
 <path fill="rgb(131,202,255)" stroke="none" d="M 2979,7057 L 3229,7182 3229,6932 2979,7057 Z"/>
 <path fill="none" stroke="rgb(131,202,255)" stroke-linejoin="round" d="M 2979,7057 L 3229,7182 3229,6932 2979,7057 Z"/>
 <path fill="rgb(131,202,255)" stroke="none" d="M 3301,7082 L 3551,7207 3551,6957 3301,7082 Z"/>
 <path fill="none" stroke="rgb(131,202,255)" stroke-linejoin="round" d="M 3301,7082 L 3551,7207 3551,6957 3301,7082 Z"/>
 <path fill="rgb(131,202,255)" stroke="none" d="M 3945,7091 L 4195,7216 4195,6966 3945,7091 Z"/>
 <path fill="none" stroke="rgb(131,202,255)" stroke-linejoin="round" d="M 3945,7091 L 4195,7216 4195,6966 3945,7091 Z"/>
 <path fill="rgb(131,202,255)" stroke="none" d="M 4589,7065 L 4839,7190 4839,6940 4589,7065 Z"/>
 <path fill="none" stroke="rgb(131,202,255)" stroke-linejoin="round" d="M 4589,7065 L 4839,7190 4839,6940 4589,7065 Z"/>
 <path fill="rgb(131,202,255)" stroke="none" d="M 7165,7066 L 7415,7191 7415,6941 7165,7066 Z"/>
 <path fill="none" stroke="rgb(131,202,255)" stroke-linejoin="round" d="M 7165,7066 L 7415,7191 7415,6941 7165,7066 Z"/>
 <path fill="rgb(131,202,255)" stroke="none" d="M 9740,7059 L 9990,7184 9990,6934 9740,7059 Z"/>
 <path fill="none" stroke="rgb(131,202,255)" stroke-linejoin="round" d="M 9740,7059 L 9990,7184 9990,6934 9740,7059 Z"/>
 <path fill="rgb(131,202,255)" stroke="none" d="M 12316,7049 L 12566,7174 12566,6924 12316,7049 Z"/>
 <path fill="none" stroke="rgb(131,202,255)" stroke-linejoin="round" d="M 12316,7049 L 12566,7174 12566,6924 12316,7049 Z"/>
 <path fill="none" stroke="rgb(126,0,33)" stroke-width="80" stroke-linejoin="round" d="M 2138,7109 L 2460,7144 2782,7165 3104,7152 3426,7106 4070,7107 4714,7109 7290,7104 9865,7103 12441,7104"/>
 <path fill="rgb(126,0,33)" stroke="none" d="M 2013,6984 L 2013,7234 2263,7109 2013,6984 Z"/>
 <path fill="none" stroke="rgb(126,0,33)" stroke-linejoin="round" d="M 2013,6984 L 2013,7234 2263,7109 2013,6984 Z"/>
 <path fill="rgb(126,0,33)" stroke="none" d="M 2335,7019 L 2335,7269 2585,7144 2335,7019 Z"/>
 <path fill="none" stroke="rgb(126,0,33)" stroke-linejoin="round" d="M 2335,7019 L 2335,7269 2585,7144 2335,7019 Z"/>
 <path fill="rgb(126,0,33)" stroke="none" d="M 2657,7040 L 2657,7290 2907,7165 2657,7040 Z"/>
 <path fill="none" stroke="rgb(126,0,33)" stroke-linejoin="round" d="M 2657,7040 L 2657,7290 2907,7165 2657,7040 Z"/>
 <path fill="rgb(126,0,33)" stroke="none" d="M 2979,7027 L 2979,7277 3229,7152 2979,7027 Z"/>
 <path fill="none" stroke="rgb(126,0,33)" stroke-linejoin="round" d="M 2979,7027 L 2979,7277 3229,7152 2979,7027 Z"/>
 <path fill="rgb(126,0,33)" stroke="none" d="M 3301,6981 L 3301,7231 3551,7106 3301,6981 Z"/>
 <path fill="none" stroke="rgb(126,0,33)" stroke-linejoin="round" d="M 3301,6981 L 3301,7231 3551,7106 3301,6981 Z"/>
 <path fill="rgb(126,0,33)" stroke="none" d="M 3945,6982 L 3945,7232 4195,7107 3945,6982 Z"/>
 <path fill="none" stroke="rgb(126,0,33)" stroke-linejoin="round" d="M 3945,6982 L 3945,7232 4195,7107 3945,6982 Z"/>
 <path fill="rgb(126,0,33)" stroke="none" d="M 4589,6984 L 4589,7234 4839,7109 4589,6984 Z"/>
 <path fill="none" stroke="rgb(126,0,33)" stroke-linejoin="round" d="M 4589,6984 L 4589,7234 4839,7109 4589,6984 Z"/>
 <path fill="rgb(126,0,33)" stroke="none" d="M 7165,6979 L 7165,7229 7415,7104 7165,6979 Z"/>
 <path fill="none" stroke="rgb(126,0,33)" stroke-linejoin="round" d="M 7165,6979 L 7165,7229 7415,7104 7165,6979 Z"/>
 <path fill="rgb(126,0,33)" stroke="none" d="M 9740,6978 L 9740,7228 9990,7103 9740,6978 Z"/>
 <path fill="none" stroke="rgb(126,0,33)" stroke-linejoin="round" d="M 9740,6978 L 9740,7228 9990,7103 9740,6978 Z"/>
 <path fill="rgb(126,0,33)" stroke="none" d="M 12316,6979 L 12316,7229 12566,7104 12316,6979 Z"/>
 <path fill="none" stroke="rgb(126,0,33)" stroke-linejoin="round" d="M 12316,6979 L 12316,7229 12566,7104 12316,6979 Z"/>
 <path fill="none" stroke="rgb(87,157,28)" stroke-width="80" stroke-linejoin="round" d="M 2138,7189 L 2460,7175 2782,7176 3104,7175 3426,7173 4070,7112 4714,7112 7290,7109 9865,7111 12441,7111"/>
 <path fill="rgb(87,157,28)" stroke="none" d="M 2013,7314 L 2263,7314 2138,7064 2013,7314 Z"/>
 <path fill="none" stroke="rgb(87,157,28)" stroke-linejoin="round" d="M 2013,7314 L 2263,7314 2138,7064 2013,7314 Z"/>
 <path fill="rgb(87,157,28)" stroke="none" d="M 2335,7300 L 2585,7300 2460,7050 2335,7300 Z"/>
 <path fill="none" stroke="rgb(87,157,28)" stroke-linejoin="round" d="M 2335,7300 L 2585,7300 2460,7050 2335,7300 Z"/>
 <path fill="rgb(87,157,28)" stroke="none" d="M 2657,7301 L 2907,7301 2782,7051 2657,7301 Z"/>
 <path fill="none" stroke="rgb(87,157,28)" stroke-linejoin="round" d="M 2657,7301 L 2907,7301 2782,7051 2657,7301 Z"/>
 <path fill="rgb(87,157,28)" stroke="none" d="M 2979,7300 L 3229,7300 3104,7050 2979,7300 Z"/>
 <path fill="none" stroke="rgb(87,157,28)" stroke-linejoin="round" d="M 2979,7300 L 3229,7300 3104,7050 2979,7300 Z"/>
 <path fill="rgb(87,157,28)" stroke="none" d="M 3301,7298 L 3551,7298 3426,7048 3301,7298 Z"/>
 <path fill="none" stroke="rgb(87,157,28)" stroke-linejoin="round" d="M 3301,7298 L 3551,7298 3426,7048 3301,7298 Z"/>
 <path fill="rgb(87,157,28)" stroke="none" d="M 3945,7237 L 4195,7237 4070,6987 3945,7237 Z"/>
 <path fill="none" stroke="rgb(87,157,28)" stroke-linejoin="round" d="M 3945,7237 L 4195,7237 4070,6987 3945,7237 Z"/>
 <path fill="rgb(87,157,28)" stroke="none" d="M 4589,7237 L 4839,7237 4714,6987 4589,7237 Z"/>
 <path fill="none" stroke="rgb(87,157,28)" stroke-linejoin="round" d="M 4589,7237 L 4839,7237 4714,6987 4589,7237 Z"/>
 <path fill="rgb(87,157,28)" stroke="none" d="M 7165,7234 L 7415,7234 7290,6984 7165,7234 Z"/>
 <path fill="none" stroke="rgb(87,157,28)" stroke-linejoin="round" d="M 7165,7234 L 7415,7234 7290,6984 7165,7234 Z"/>
 <path fill="rgb(87,157,28)" stroke="none" d="M 9740,7236 L 9990,7236 9865,6986 9740,7236 Z"/>
 <path fill="none" stroke="rgb(87,157,28)" stroke-linejoin="round" d="M 9740,7236 L 9990,7236 9865,6986 9740,7236 Z"/>
 <path fill="rgb(87,157,28)" stroke="none" d="M 12316,7236 L 12566,7236 12441,6986 12316,7236 Z"/>
 <path fill="none" stroke="rgb(87,157,28)" stroke-linejoin="round" d="M 12316,7236 L 12566,7236 12441,6986 12316,7236 Z"/>
 <path fill="none" stroke="rgb(255,211,32)" stroke-width="80" stroke-linejoin="round" d="M 2138,7189 L 2460,7176 2782,7176 3104,7174 3426,7112 4070,7112 4714,7112 7290,7112 9865,7110 12441,7109"/>
 <path fill="rgb(255,211,32)" stroke="none" d="M 2013,7064 L 2138,7314 2263,7064 2013,7064 Z"/>
 <path fill="none" stroke="rgb(255,211,32)" stroke-linejoin="round" d="M 2013,7064 L 2138,7314 2263,7064 2013,7064 Z"/>
 <path fill="rgb(255,211,32)" stroke="none" d="M 2335,7051 L 2460,7301 2585,7051 2335,7051 Z"/>
 <path fill="none" stroke="rgb(255,211,32)" stroke-linejoin="round" d="M 2335,7051 L 2460,7301 2585,7051 2335,7051 Z"/>
 <path fill="rgb(255,211,32)" stroke="none" d="M 2657,7051 L 2782,7301 2907,7051 2657,7051 Z"/>
 <path fill="none" stroke="rgb(255,211,32)" stroke-linejoin="round" d="M 2657,7051 L 2782,7301 2907,7051 2657,7051 Z"/>
 <path fill="rgb(255,211,32)" stroke="none" d="M 2979,7049 L 3104,7299 3229,7049 2979,7049 Z"/>
 <path fill="none" stroke="rgb(255,211,32)" stroke-linejoin="round" d="M 2979,7049 L 3104,7299 3229,7049 2979,7049 Z"/>
 <path fill="rgb(255,211,32)" stroke="none" d="M 3301,6987 L 3426,7237 3551,6987 3301,6987 Z"/>
 <path fill="none" stroke="rgb(255,211,32)" stroke-linejoin="round" d="M 3301,6987 L 3426,7237 3551,6987 3301,6987 Z"/>
 <path fill="rgb(255,211,32)" stroke="none" d="M 3945,6987 L 4070,7237 4195,6987 3945,6987 Z"/>
 <path fill="none" stroke="rgb(255,211,32)" stroke-linejoin="round" d="M 3945,6987 L 4070,7237 4195,6987 3945,6987 Z"/>
 <path fill="rgb(255,211,32)" stroke="none" d="M 4589,6987 L 4714,7237 4839,6987 4589,6987 Z"/>
 <path fill="none" stroke="rgb(255,211,32)" stroke-linejoin="round" d="M 4589,6987 L 4714,7237 4839,6987 4589,6987 Z"/>
 <path fill="rgb(255,211,32)" stroke="none" d="M 7165,6987 L 7290,7237 7415,6987 7165,6987 Z"/>
 <path fill="none" stroke="rgb(255,211,32)" stroke-linejoin="round" d="M 7165,6987 L 7290,7237 7415,6987 7165,6987 Z"/>
 <path fill="rgb(255,211,32)" stroke="none" d="M 9740,6985 L 9865,7235 9990,6985 9740,6985 Z"/>
 <path fill="none" stroke="rgb(255,211,32)" stroke-linejoin="round" d="M 9740,6985 L 9865,7235 9990,6985 9740,6985 Z"/>
 <path fill="rgb(255,211,32)" stroke="none" d="M 12316,6984 L 12441,7234 12566,6984 12316,6984 Z"/>
 <path fill="none" stroke="rgb(255,211,32)" stroke-linejoin="round" d="M 12316,6984 L 12441,7234 12566,6984 12316,6984 Z"/>
 <path fill="none" stroke="rgb(255,66,14)" stroke-width="80" stroke-linejoin="round" d="M 2138,7189 L 2460,7176 2782,7176 3104,7176 3426,7112 4070,7112 4714,7112 7290,7110 9865,7112 12441,7109"/>
 <path fill="rgb(255,66,14)" stroke="none" d="M 2013,7189 L 2138,7314 2263,7189 2138,7064 2013,7189 Z"/>
 <path fill="none" stroke="rgb(255,66,14)" stroke-linejoin="round" d="M 2013,7189 L 2138,7314 2263,7189 2138,7064 2013,7189 Z"/>
 <path fill="rgb(255,66,14)" stroke="none" d="M 2335,7176 L 2460,7301 2585,7176 2460,7051 2335,7176 Z"/>
 <path fill="none" stroke="rgb(255,66,14)" stroke-linejoin="round" d="M 2335,7176 L 2460,7301 2585,7176 2460,7051 2335,7176 Z"/>
 <path fill="rgb(255,66,14)" stroke="none" d="M 2657,7176 L 2782,7301 2907,7176 2782,7051 2657,7176 Z"/>
 <path fill="none" stroke="rgb(255,66,14)" stroke-linejoin="round" d="M 2657,7176 L 2782,7301 2907,7176 2782,7051 2657,7176 Z"/>
 <path fill="rgb(255,66,14)" stroke="none" d="M 2979,7176 L 3104,7301 3229,7176 3104,7051 2979,7176 Z"/>
 <path fill="none" stroke="rgb(255,66,14)" stroke-linejoin="round" d="M 2979,7176 L 3104,7301 3229,7176 3104,7051 2979,7176 Z"/>
 <path fill="rgb(255,66,14)" stroke="none" d="M 3301,7112 L 3426,7237 3551,7112 3426,6987 3301,7112 Z"/>
 <path fill="none" stroke="rgb(255,66,14)" stroke-linejoin="round" d="M 3301,7112 L 3426,7237 3551,7112 3426,6987 3301,7112 Z"/>
 <path fill="rgb(255,66,14)" stroke="none" d="M 3945,7112 L 4070,7237 4195,7112 4070,6987 3945,7112 Z"/>
 <path fill="none" stroke="rgb(255,66,14)" stroke-linejoin="round" d="M 3945,7112 L 4070,7237 4195,7112 4070,6987 3945,7112 Z"/>
 <path fill="rgb(255,66,14)" stroke="none" d="M 4589,7112 L 4714,7237 4839,7112 4714,6987 4589,7112 Z"/>
 <path fill="none" stroke="rgb(255,66,14)" stroke-linejoin="round" d="M 4589,7112 L 4714,7237 4839,7112 4714,6987 4589,7112 Z"/>
 <path fill="rgb(255,66,14)" stroke="none" d="M 7165,7110 L 7290,7235 7415,7110 7290,6985 7165,7110 Z"/>
 <path fill="none" stroke="rgb(255,66,14)" stroke-linejoin="round" d="M 7165,7110 L 7290,7235 7415,7110 7290,6985 7165,7110 Z"/>
 <path fill="rgb(255,66,14)" stroke="none" d="M 9740,7112 L 9865,7237 9990,7112 9865,6987 9740,7112 Z"/>
 <path fill="none" stroke="rgb(255,66,14)" stroke-linejoin="round" d="M 9740,7112 L 9865,7237 9990,7112 9865,6987 9740,7112 Z"/>
 <path fill="rgb(255,66,14)" stroke="none" d="M 12316,7109 L 12441,7234 12566,7109 12441,6984 12316,7109 Z"/>
 <path fill="none" stroke="rgb(255,66,14)" stroke-linejoin="round" d="M 12316,7109 L 12441,7234 12566,7109 12441,6984 12316,7109 Z"/>
 <path fill="none" stroke="rgb(0,69,134)" stroke-width="80" stroke-linejoin="round" d="M 2138,7189 L 2460,7171 2782,7166 3104,7167 3426,7112 4070,7112 4714,7111 7290,7112 9865,7111 12441,7109"/>
 <path fill="rgb(0,69,134)" stroke="none" d="M 2013,7064 L 2013,7314 2263,7314 2263,7064 2013,7064 Z"/>
 <path fill="none" stroke="rgb(0,69,134)" stroke-linejoin="round" d="M 2013,7064 L 2013,7314 2263,7314 2263,7064 2013,7064 Z"/>
 <path fill="rgb(0,69,134)" stroke="none" d="M 2335,7046 L 2335,7296 2585,7296 2585,7046 2335,7046 Z"/>
 <path fill="none" stroke="rgb(0,69,134)" stroke-linejoin="round" d="M 2335,7046 L 2335,7296 2585,7296 2585,7046 2335,7046 Z"/>
 <path fill="rgb(0,69,134)" stroke="none" d="M 2657,7041 L 2657,7291 2907,7291 2907,7041 2657,7041 Z"/>
 <path fill="none" stroke="rgb(0,69,134)" stroke-linejoin="round" d="M 2657,7041 L 2657,7291 2907,7291 2907,7041 2657,7041 Z"/>
 <path fill="rgb(0,69,134)" stroke="none" d="M 2979,7042 L 2979,7292 3229,7292 3229,7042 2979,7042 Z"/>
 <path fill="none" stroke="rgb(0,69,134)" stroke-linejoin="round" d="M 2979,7042 L 2979,7292 3229,7292 3229,7042 2979,7042 Z"/>
 <path fill="rgb(0,69,134)" stroke="none" d="M 3301,6987 L 3301,7237 3551,7237 3551,6987 3301,6987 Z"/>
 <path fill="none" stroke="rgb(0,69,134)" stroke-linejoin="round" d="M 3301,6987 L 3301,7237 3551,7237 3551,6987 3301,6987 Z"/>
 <path fill="rgb(0,69,134)" stroke="none" d="M 3945,6987 L 3945,7237 4195,7237 4195,6987 3945,6987 Z"/>
 <path fill="none" stroke="rgb(0,69,134)" stroke-linejoin="round" d="M 3945,6987 L 3945,7237 4195,7237 4195,6987 3945,6987 Z"/>
 <path fill="rgb(0,69,134)" stroke="none" d="M 4589,6986 L 4589,7236 4839,7236 4839,6986 4589,6986 Z"/>
 <path fill="none" stroke="rgb(0,69,134)" stroke-linejoin="round" d="M 4589,6986 L 4589,7236 4839,7236 4839,6986 4589,6986 Z"/>
 <path fill="rgb(0,69,134)" stroke="none" d="M 7165,6987 L 7165,7237 7415,7237 7415,6987 7165,6987 Z"/>
 <path fill="none" stroke="rgb(0,69,134)" stroke-linejoin="round" d="M 7165,6987 L 7165,7237 7415,7237 7415,6987 7165,6987 Z"/>
 <path fill="rgb(0,69,134)" stroke="none" d="M 9740,6986 L 9740,7236 9990,7236 9990,6986 9740,6986 Z"/>
 <path fill="none" stroke="rgb(0,69,134)" stroke-linejoin="round" d="M 9740,6986 L 9740,7236 9990,7236 9990,6986 9740,6986 Z"/>
 <path fill="rgb(0,69,134)" stroke="none" d="M 12316,6984 L 12316,7234 12566,7234 12566,6984 12316,6984 Z"/>
 <path fill="none" stroke="rgb(0,69,134)" stroke-linejoin="round" d="M 12316,6984 L 12316,7234 12566,7234 12566,6984 12316,6984 Z"/>
 <text class="TextShape"><tspan class="TextParagraph" font-family="Liberation Sans, sans-serif" font-size="353px" font-weight="400"><tspan class="TextPosition" x="2045" y="7758"><tspan fill="rgb(0,0,0)" stroke="none">0</tspan></tspan></tspan></text>
 <text class="TextShape"><tspan class="TextParagraph" font-family="Liberation Sans, sans-serif" font-size="353px" font-weight="400"><tspan class="TextPosition" x="3655" y="7758"><tspan fill="rgb(0,0,0)" stroke="none">5</tspan></tspan></tspan></text>
 <text class="TextShape"><tspan class="TextParagraph" font-family="Liberation Sans, sans-serif" font-size="353px" font-weight="400"><tspan class="TextPosition" x="5173" y="7758"><tspan fill="rgb(0,0,0)" stroke="none">10</tspan></tspan></tspan></text>
 <text class="TextShape"><tspan class="TextParagraph" font-family="Liberation Sans, sans-serif" font-size="353px" font-weight="400"><tspan class="TextPosition" x="6783" y="7758"><tspan fill="rgb(0,0,0)" stroke="none">15</tspan></tspan></tspan></text>
 <text class="TextShape"><tspan class="TextParagraph" font-family="Liberation Sans, sans-serif" font-size="353px" font-weight="400"><tspan class="TextPosition" x="8393" y="7758"><tspan fill="rgb(0,0,0)" stroke="none">20</tspan></tspan></tspan></text>
 <text class="TextShape"><tspan class="TextParagraph" font-family="Liberation Sans, sans-serif" font-size="353px" font-weight="400"><tspan class="TextPosition" x="10003" y="7758"><tspan fill="rgb(0,0,0)" stroke="none">25</tspan></tspan></tspan></text>
 <text class="TextShape"><tspan class="TextParagraph" font-family="Liberation Sans, sans-serif" font-size="353px" font-weight="400"><tspan class="TextPosition" x="11613" y="7758"><tspan fill="rgb(0,0,0)" stroke="none">30</tspan></tspan></tspan></text>
 <text class="TextShape"><tspan class="TextParagraph" font-family="Liberation Sans, sans-serif" font-size="353px" font-weight="400"><tspan class="TextPosition" x="13223" y="7758"><tspan fill="rgb(0,0,0)" stroke="none">35</tspan></tspan></tspan></text>
 <text class="TextShape"><tspan class="TextParagraph" font-family="Liberation Sans, sans-serif" font-size="353px" font-weight="400"><tspan class="TextPosition" x="1703" y="7311"><tspan fill="rgb(0,0,0)" stroke="none">0</tspan></tspan></tspan></text>
 <text class="TextShape"><tspan class="TextParagraph" font-family="Liberation Sans, sans-serif" font-size="353px" font-weight="400"><tspan class="TextPosition" x="1332" y="6459"><tspan fill="rgb(0,0,0)" stroke="none">100</tspan></tspan></tspan></text>
 <text class="TextShape"><tspan class="TextParagraph" font-family="Liberation Sans, sans-serif" font-size="353px" font-weight="400"><tspan class="TextPosition" x="1332" y="5607"><tspan fill="rgb(0,0,0)" stroke="none">200</tspan></tspan></tspan></text>
 <text class="TextShape"><tspan class="TextParagraph" font-family="Liberation Sans, sans-serif" font-size="353px" font-weight="400"><tspan class="TextPosition" x="1332" y="4756"><tspan fill="rgb(0,0,0)" stroke="none">300</tspan></tspan></tspan></text>
 <text class="TextShape"><tspan class="TextParagraph" font-family="Liberation Sans, sans-serif" font-size="353px" font-weight="400"><tspan class="TextPosition" x="1332" y="3904"><tspan fill="rgb(0,0,0)" stroke="none">400</tspan></tspan></tspan></text>
 <text class="TextShape"><tspan class="TextParagraph" font-family="Liberation Sans, sans-serif" font-size="353px" font-weight="400"><tspan class="TextPosition" x="1332" y="3052"><tspan fill="rgb(0,0,0)" stroke="none">500</tspan></tspan></tspan></text>
 <text class="TextShape"><tspan class="TextParagraph" font-family="Liberation Sans, sans-serif" font-size="353px" font-weight="400"><tspan class="TextPosition" x="1332" y="2201"><tspan fill="rgb(0,0,0)" stroke="none">600</tspan></tspan></tspan></text>
 <text class="TextShape"><tspan class="TextParagraph" font-family="Liberation Sans, sans-serif" font-size="353px" font-weight="400"><tspan class="TextPosition" x="1332" y="1349"><tspan fill="rgb(0,0,0)" stroke="none">700</tspan></tspan></tspan></text>
 <text class="TextShape"><tspan class="TextParagraph" font-family="Liberation Sans, sans-serif" font-size="353px" font-weight="400"><tspan class="TextPosition" x="1332" y="498"><tspan fill="rgb(0,0,0)" stroke="none">800</tspan></tspan></tspan></text>
 <path fill="none" stroke="rgb(0,69,134)" stroke-width="80" stroke-linejoin="round" d="M 14030,2756 L 14830,2756"/>
 <path fill="rgb(0,69,134)" stroke="none" d="M 14324,2651 L 14324,2861 14535,2861 14535,2651 14324,2651 Z"/>
 <path fill="none" stroke="rgb(0,69,134)" stroke-linejoin="round" d="M 14324,2651 L 14324,2861 14535,2861 14535,2651 14324,2651 Z"/>
 <path fill="none" stroke="rgb(255,66,14)" stroke-width="80" stroke-linejoin="round" d="M 14030,3254 L 14830,3254"/>
 <path fill="rgb(255,66,14)" stroke="none" d="M 14324,3254 L 14430,3359 14535,3254 14430,3149 14324,3254 Z"/>
 <path fill="none" stroke="rgb(255,66,14)" stroke-linejoin="round" d="M 14324,3254 L 14430,3359 14535,3254 14430,3149 14324,3254 Z"/>
 <path fill="none" stroke="rgb(255,211,32)" stroke-width="80" stroke-linejoin="round" d="M 14030,3752 L 14830,3752"/>
 <path fill="rgb(255,211,32)" stroke="none" d="M 14324,3647 L 14430,3857 14535,3647 14324,3647 Z"/>
 <path fill="none" stroke="rgb(255,211,32)" stroke-linejoin="round" d="M 14324,3647 L 14430,3857 14535,3647 14324,3647 Z"/>
 <path fill="none" stroke="rgb(87,157,28)" stroke-width="80" stroke-linejoin="round" d="M 14030,4250 L 14830,4250"/>
 <path fill="rgb(87,157,28)" stroke="none" d="M 14324,4355 L 14535,4355 14430,4145 14324,4355 Z"/>
 <path fill="none" stroke="rgb(87,157,28)" stroke-linejoin="round" d="M 14324,4355 L 14535,4355 14430,4145 14324,4355 Z"/>
 <path fill="none" stroke="rgb(126,0,33)" stroke-width="80" stroke-linejoin="round" d="M 14030,4747 L 14830,4747"/>
 <path fill="rgb(126,0,33)" stroke="none" d="M 14324,4642 L 14324,4852 14535,4747 14324,4642 Z"/>
 <path fill="none" stroke="rgb(126,0,33)" stroke-linejoin="round" d="M 14324,4642 L 14324,4852 14535,4747 14324,4642 Z"/>
 <path fill="none" stroke="rgb(131,202,255)" stroke-width="80" stroke-linejoin="round" d="M 14030,5245 L 14830,5245"/>
 <path fill="rgb(131,202,255)" stroke="none" d="M 14324,5245 L 14535,5350 14535,5140 14324,5245 Z"/>
 <path fill="none" stroke="rgb(131,202,255)" stroke-linejoin="round" d="M 14324,5245 L 14535,5350 14535,5140 14324,5245 Z"/>
 <path fill="none" stroke="rgb(49,64,4)" stroke-width="80" stroke-linejoin="round" d="M 14030,5743 L 14830,5743"/>
 <path fill="rgb(49,64,4)" stroke="none" d="M 14324,5638 L 14324,5848 14535,5638 14535,5848 14324,5638 Z"/>
 <path fill="none" stroke="rgb(49,64,4)" stroke-linejoin="round" d="M 14324,5638 L 14324,5848 14535,5638 14535,5848 14324,5638 Z"/>
 <path fill="none" stroke="rgb(174,207,0)" stroke-width="80" stroke-linejoin="round" d="M 14030,6241 L 14830,6241"/>
 <path fill="rgb(174,207,0)" stroke="none" d="M 14324,6346 L 14535,6346 14324,6136 14535,6136 14324,6346 Z"/>
 <path fill="none" stroke="rgb(174,207,0)" stroke-linejoin="round" d="M 14324,6346 L 14535,6346 14324,6136 14535,6136 14324,6346 Z"/>
 <text class="TextShape"><tspan class="TextParagraph" font-family="Liberation Sans, sans-serif" font-size="353px" font-weight="400"><tspan class="TextPosition" x="14930" y="2876"><tspan fill="rgb(0,0,0)" stroke="none">1</tspan></tspan></tspan></text>
 <text class="TextShape"><tspan class="TextParagraph" font-family="Liberation Sans, sans-serif" font-size="353px" font-weight="400"><tspan class="TextPosition" x="14930" y="3374"><tspan fill="rgb(0,0,0)" stroke="none">3</tspan></tspan></tspan></text>
 <text class="TextShape"><tspan class="TextParagraph" font-family="Liberation Sans, sans-serif" font-size="353px" font-weight="400"><tspan class="TextPosition" x="14930" y="3872"><tspan fill="rgb(0,0,0)" stroke="none">10</tspan></tspan></tspan></text>
 <text class="TextShape"><tspan class="TextParagraph" font-family="Liberation Sans, sans-serif" font-size="353px" font-weight="400"><tspan class="TextPosition" x="14930" y="4370"><tspan fill="rgb(0,0,0)" stroke="none">100</tspan></tspan></tspan></text>
 <text class="TextShape"><tspan class="TextParagraph" font-family="Liberation Sans, sans-serif" font-size="353px" font-weight="400"><tspan class="TextPosition" x="14930" y="4867"><tspan fill="rgb(0,0,0)" stroke="none">500</tspan></tspan></tspan></text>
 <text class="TextShape"><tspan class="TextParagraph" font-family="Liberation Sans, sans-serif" font-size="353px" font-weight="400"><tspan class="TextPosition" x="14930" y="5365"><tspan fill="rgb(0,0,0)" stroke="none">1000</tspan></tspan></tspan></text>
 <text class="TextShape"><tspan class="TextParagraph" font-family="Liberation Sans, sans-serif" font-size="353px" font-weight="400"><tspan class="TextPosition" x="14930" y="5863"><tspan fill="rgb(0,0,0)" stroke="none">3000</tspan></tspan></tspan></text>
 <text class="TextShape"><tspan class="TextParagraph" font-family="Liberation Sans, sans-serif" font-size="353px" font-weight="400"><tspan class="TextPosition" x="14930" y="6361"><tspan fill="rgb(0,0,0)" stroke="none">5000</tspan></tspan></tspan></text>
 <text class="TextShape"><tspan class="TextParagraph" font-family="Liberation Sans, sans-serif" font-size="318px" font-weight="400"><tspan class="TextPosition" x="6563" y="8405"><tspan fill="rgb(0,0,0)" stroke="none">N of streams</tspan></tspan></tspan></text>
 <text class="TextShape"><tspan class="TextParagraph" font-family="Liberation Sans, sans-serif" font-size="318px" font-weight="400"><tspan class="TextPosition" x="837" y="4643" transform="translate(837,4643) rotate(-90) translate(-837,-4643)"><tspan fill="rgb(0,0,0)" stroke="none">Time, ms</tspan></tspan></tspan></text>
</svg>