<?xml version="1.0" encoding="UTF-8"?>
<!DOCTYPE svg PUBLIC "-//W3C//DTD SVG 1.1//EN" "http://www.w3.org/Graphics/SVG/1.1/DTD/svg11.dtd">
<svg width="160mm" height="90mm" viewBox="0 0 16000 9000" version="1.1" baseProfile="tiny" xmlns="http://www.w3.org/2000/svg" stroke-width="28.222" stroke-linejoin="round" xml:space="preserve">
 <path fill="rgb(255,255,255)" stroke="none" d="M 8000,8999 L 0,8999 0,0 15999,0 15999,8999 8000,8999 Z"/>
 <path fill="none" stroke="rgb(179,179,179)" stroke-linejoin="round" d="M 7773,7191 L 2138,7191 2138,379 13407,379 13407,7191 7773,7191 Z"/>
 <path fill="none" stroke="rgb(179,179,179)" stroke-linejoin="round" d="M 2138,378 L 2138,7190"/>
 <path fill="none" stroke="rgb(179,179,179)" stroke-linejoin="round" d="M 3748,378 L 3748,7190"/>
 <path fill="none" stroke="rgb(179,179,179)" stroke-linejoin="round" d="M 5358,378 L 5358,7190"/>
 <path fill="none" stroke="rgb(179,179,179)" stroke-linejoin="round" d="M 6968,378 L 6968,7190"/>
 <path fill="none" stroke="rgb(179,179,179)" stroke-linejoin="round" d="M 8577,378 L 8577,7190"/>
 <path fill="none" stroke="rgb(179,179,179)" stroke-linejoin="round" d="M 10187,378 L 10187,7190"/>
 <path fill="none" stroke="rgb(179,179,179)" stroke-linejoin="round" d="M 11797,378 L 11797,7190"/>
 <path fill="none" stroke="rgb(179,179,179)" stroke-linejoin="round" d="M 13407,378 L 13407,7190"/>
 <path fill="none" stroke="rgb(179,179,179)" stroke-linejoin="round" d="M 13407,7190 L 2138,7190"/>
 <path fill="none" stroke="rgb(179,179,179)" stroke-linejoin="round" d="M 13407,6054 L 2138,6054"/>
 <path fill="none" stroke="rgb(179,179,179)" stroke-linejoin="round" d="M 13407,4919 L 2138,4919"/>
 <path fill="none" stroke="rgb(179,179,179)" stroke-linejoin="round" d="M 13407,3784 L 2138,3784"/>
 <path fill="none" stroke="rgb(179,179,179)" stroke-linejoin="round" d="M 13407,2649 L 2138,2649"/>
 <path fill="none" stroke="rgb(179,179,179)" stroke-linejoin="round" d="M 13407,1513 L 2138,1513"/>
 <path fill="none" stroke="rgb(179,179,179)" stroke-linejoin="round" d="M 13407,378 L 2138,378"/>
 <path fill="none" stroke="rgb(179,179,179)" stroke-linejoin="round" d="M 2138,7340 L 2138,7190"/>
 <path fill="none" stroke="rgb(179,179,179)" stroke-linejoin="round" d="M 2138,7340 L 2138,7190"/>
 <path fill="none" stroke="rgb(179,179,179)" stroke-linejoin="round" d="M 3748,7340 L 3748,7190"/>
 <path fill="none" stroke="rgb(179,179,179)" stroke-linejoin="round" d="M 3748,7340 L 3748,7190"/>
 <path fill="none" stroke="rgb(179,179,179)" stroke-linejoin="round" d="M 5358,7340 L 5358,7190"/>
 <path fill="none" stroke="rgb(179,179,179)" stroke-linejoin="round" d="M 5358,7340 L 5358,7190"/>
 <path fill="none" stroke="rgb(179,179,179)" stroke-linejoin="round" d="M 6968,7340 L 6968,7190"/>
 <path fill="none" stroke="rgb(179,179,179)" stroke-linejoin="round" d="M 6968,7340 L 6968,7190"/>
 <path fill="none" stroke="rgb(179,179,179)" stroke-linejoin="round" d="M 8577,7340 L 8577,7190"/>
 <path fill="none" stroke="rgb(179,179,179)" stroke-linejoin="round" d="M 8577,7340 L 8577,7190"/>
 <path fill="none" stroke="rgb(179,179,179)" stroke-linejoin="round" d="M 10187,7340 L 10187,7190"/>
 <path fill="none" stroke="rgb(179,179,179)" stroke-linejoin="round" d="M 10187,7340 L 10187,7190"/>
 <path fill="none" stroke="rgb(179,179,179)" stroke-linejoin="round" d="M 11797,7340 L 11797,7190"/>
 <path fill="none" stroke="rgb(179,179,179)" stroke-linejoin="round" d="M 11797,7340 L 11797,7190"/>
 <path fill="none" stroke="rgb(179,179,179)" stroke-linejoin="round" d="M 13407,7340 L 13407,7190"/>
 <path fill="none" stroke="rgb(179,179,179)" stroke-linejoin="round" d="M 13407,7340 L 13407,7190"/>
 <path fill="none" stroke="rgb(179,179,179)" stroke-linejoin="round" d="M 2138,7190 L 13407,7190"/>
 <path fill="none" stroke="rgb(179,179,179)" stroke-linejoin="round" d="M 1988,7190 L 2138,7190"/>
 <path fill="none" stroke="rgb(179,179,179)" stroke-linejoin="round" d="M 1988,7190 L 2138,7190"/>
 <path fill="none" stroke="rgb(179,179,179)" stroke-linejoin="round" d="M 1988,6054 L 2138,6054"/>
 <path fill="none" stroke="rgb(179,179,179)" stroke-linejoin="round" d="M 1988,6054 L 2138,6054"/>
 <path fill="none" stroke="rgb(179,179,179)" stroke-linejoin="round" d="M 1988,4919 L 2138,4919"/>
 <path fill="none" stroke="rgb(179,179,179)" stroke-linejoin="round" d="M 1988,4919 L 2138,4919"/>
 <path fill="none" stroke="rgb(179,179,179)" stroke-linejoin="round" d="M 1988,3784 L 2138,3784"/>
 <path fill="none" stroke="rgb(179,179,179)" stroke-linejoin="round" d="M 1988,3784 L 2138,3784"/>
 <path fill="none" stroke="rgb(179,179,179)" stroke-linejoin="round" d="M 1988,2648 L 2138,2648"/>
 <path fill="none" stroke="rgb(179,179,179)" stroke-linejoin="round" d="M 1988,2648 L 2138,2648"/>
 <path fill="none" stroke="rgb(179,179,179)" stroke-linejoin="round" d="M 1988,1513 L 2138,1513"/>
 <path fill="none" stroke="rgb(179,179,179)" stroke-linejoin="round" d="M 1988,1513 L 2138,1513"/>
 <path fill="none" stroke="rgb(179,179,179)" stroke-linejoin="round" d="M 1988,378 L 2138,378"/>
 <path fill="none" stroke="rgb(179,179,179)" stroke-linejoin="round" d="M 1988,378 L 2138,378"/>
 <path fill="none" stroke="rgb(179,179,179)" stroke-linejoin="round" d="M 2138,7190 L 2138,378"/>
 <path fill="none" stroke="rgb(174,207,0)" stroke-width="80" stroke-linejoin="round" d="M 2138,1153 L 2460,788 2782,3978 3104,5044 3426,5579 4070,5325 4714,5489 7290,5506 9865,5459 12441,5445"/>
 <path fill="rgb(174,207,0)" stroke="none" d="M 2013,1278 L 2263,1278 2013,1028 2263,1028 2013,1278 Z"/>
 <path fill="none" stroke="rgb(174,207,0)" stroke-linejoin="round" d="M 2013,1278 L 2263,1278 2013,1028 2263,1028 2013,1278 Z"/>
 <path fill="rgb(174,207,0)" stroke="none" d="M 2335,913 L 2585,913 2335,663 2585,663 2335,913 Z"/>
 <path fill="none" stroke="rgb(174,207,0)" stroke-linejoin="round" d="M 2335,913 L 2585,913 2335,663 2585,663 2335,913 Z"/>
 <path fill="rgb(174,207,0)" stroke="none" d="M 2657,4103 L 2907,4103 2657,3853 2907,3853 2657,4103 Z"/>
 <path fill="none" stroke="rgb(174,207,0)" stroke-linejoin="round" d="M 2657,4103 L 2907,4103 2657,3853 2907,3853 2657,4103 Z"/>
 <path fill="rgb(174,207,0)" stroke="none" d="M 2979,5169 L 3229,5169 2979,4919 3229,4919 2979,5169 Z"/>
 <path fill="none" stroke="rgb(174,207,0)" stroke-linejoin="round" d="M 2979,5169 L 3229,5169 2979,4919 3229,4919 2979,5169 Z"/>
 <path fill="rgb(174,207,0)" stroke="none" d="M 3301,5704 L 3551,5704 3301,5454 3551,5454 3301,5704 Z"/>
 <path fill="none" stroke="rgb(174,207,0)" stroke-linejoin="round" d="M 3301,5704 L 3551,5704 3301,5454 3551,5454 3301,5704 Z"/>
 <path fill="rgb(174,207,0)" stroke="none" d="M 3945,5450 L 4195,5450 3945,5200 4195,5200 3945,5450 Z"/>
 <path fill="none" stroke="rgb(174,207,0)" stroke-linejoin="round" d="M 3945,5450 L 4195,5450 3945,5200 4195,5200 3945,5450 Z"/>
 <path fill="rgb(174,207,0)" stroke="none" d="M 4589,5614 L 4839,5614 4589,5364 4839,5364 4589,5614 Z"/>
 <path fill="none" stroke="rgb(174,207,0)" stroke-linejoin="round" d="M 4589,5614 L 4839,5614 4589,5364 4839,5364 4589,5614 Z"/>
 <path fill="rgb(174,207,0)" stroke="none" d="M 7165,5631 L 7415,5631 7165,5381 7415,5381 7165,5631 Z"/>
 <path fill="none" stroke="rgb(174,207,0)" stroke-linejoin="round" d="M 7165,5631 L 7415,5631 7165,5381 7415,5381 7165,5631 Z"/>
 <path fill="rgb(174,207,0)" stroke="none" d="M 9740,5584 L 9990,5584 9740,5334 9990,5334 9740,5584 Z"/>
 <path fill="none" stroke="rgb(174,207,0)" stroke-linejoin="round" d="M 9740,5584 L 9990,5584 9740,5334 9990,5334 9740,5584 Z"/>
 <path fill="rgb(174,207,0)" stroke="none" d="M 12316,5570 L 12566,5570 12316,5320 12566,5320 12316,5570 Z"/>
 <path fill="none" stroke="rgb(174,207,0)" stroke-linejoin="round" d="M 12316,5570 L 12566,5570 12316,5320 12566,5320 12316,5570 Z"/>
 <path fill="none" stroke="rgb(49,64,4)" stroke-width="80" stroke-linejoin="round" d="M 2138,5038 L 2460,4901 2782,6036 3104,6417 3426,6575 4070,6412 4714,6368 7290,6407 9865,6570 12441,6450"/>
 <path fill="rgb(49,64,4)" stroke="none" d="M 2013,4913 L 2013,5163 2263,4913 2263,5163 2013,4913 Z"/>
 <path fill="none" stroke="rgb(49,64,4)" stroke-linejoin="round" d="M 2013,4913 L 2013,5163 2263,4913 2263,5163 2013,4913 Z"/>
 <path fill="rgb(49,64,4)" stroke="none" d="M 2335,4776 L 2335,5026 2585,4776 2585,5026 2335,4776 Z"/>
 <path fill="none" stroke="rgb(49,64,4)" stroke-linejoin="round" d="M 2335,4776 L 2335,5026 2585,4776 2585,5026 2335,4776 Z"/>
 <path fill="rgb(49,64,4)" stroke="none" d="M 2657,5911 L 2657,6161 2907,5911 2907,6161 2657,5911 Z"/>
 <path fill="none" stroke="rgb(49,64,4)" stroke-linejoin="round" d="M 2657,5911 L 2657,6161 2907,5911 2907,6161 2657,5911 Z"/>
 <path fill="rgb(49,64,4)" stroke="none" d="M 2979,6292 L 2979,6542 3229,6292 3229,6542 2979,6292 Z"/>
 <path fill="none" stroke="rgb(49,64,4)" stroke-linejoin="round" d="M 2979,6292 L 2979,6542 3229,6292 3229,6542 2979,6292 Z"/>
 <path fill="rgb(49,64,4)" stroke="none" d="M 3301,6450 L 3301,6700 3551,6450 3551,6700 3301,6450 Z"/>
 <path fill="none" stroke="rgb(49,64,4)" stroke-linejoin="round" d="M 3301,6450 L 3301,6700 3551,6450 3551,6700 3301,6450 Z"/>
 <path fill="rgb(49,64,4)" stroke="none" d="M 3945,6287 L 3945,6537 4195,6287 4195,6537 3945,6287 Z"/>
 <path fill="none" stroke="rgb(49,64,4)" stroke-linejoin="round" d="M 3945,6287 L 3945,6537 4195,6287 4195,6537 3945,6287 Z"/>
 <path fill="rgb(49,64,4)" stroke="none" d="M 4589,6243 L 4589,6493 4839,6243 4839,6493 4589,6243 Z"/>
 <path fill="none" stroke="rgb(49,64,4)" stroke-linejoin="round" d="M 4589,6243 L 4589,6493 4839,6243 4839,6493 4589,6243 Z"/>
 <path fill="rgb(49,64,4)" stroke="none" d="M 7165,6282 L 7165,6532 7415,6282 7415,6532 7165,6282 Z"/>
 <path fill="none" stroke="rgb(49,64,4)" stroke-linejoin="round" d="M 7165,6282 L 7165,6532 7415,6282 7415,6532 7165,6282 Z"/>
 <path fill="rgb(49,64,4)" stroke="none" d="M 9740,6445 L 9740,6695 9990,6445 9990,6695 9740,6445 Z"/>
 <path fill="none" stroke="rgb(49,64,4)" stroke-linejoin="round" d="M 9740,6445 L 9740,6695 9990,6445 9990,6695 9740,6445 Z"/>
 <path fill="rgb(49,64,4)" stroke="none" d="M 12316,6325 L 12316,6575 12566,6325 12566,6575 12316,6325 Z"/>
 <path fill="none" stroke="rgb(49,64,4)" stroke-linejoin="round" d="M 12316,6325 L 12316,6575 12566,6325 12566,6575 12316,6325 Z"/>
 <path fill="none" stroke="rgb(131,202,255)" stroke-width="80" stroke-linejoin="round" d="M 2138,6950 L 2460,6935 2782,7046 3104,7100 3426,7123 4070,7100 4714,7120 7290,7116 9865,7092 12441,7113"/>
 <path fill="rgb(131,202,255)" stroke="none" d="M 2013,6950 L 2263,7075 2263,6825 2013,6950 Z"/>
 <path fill="none" stroke="rgb(131,202,255)" stroke-linejoin="round" d="M 2013,6950 L 2263,7075 2263,6825 2013,6950 Z"/>
 <path fill="rgb(131,202,255)" stroke="none" d="M 2335,6935 L 2585,7060 2585,6810 2335,6935 Z"/>
 <path fill="none" stroke="rgb(131,202,255)" stroke-linejoin="round" d="M 2335,6935 L 2585,7060 2585,6810 2335,6935 Z"/>
 <path fill="rgb(131,202,255)" stroke="none" d="M 2657,7046 L 2907,7171 2907,6921 2657,7046 Z"/>
 <path fill="none" stroke="rgb(131,202,255)" stroke-linejoin="round" d="M 2657,7046 L 2907,7171 2907,6921 2657,7046 Z"/>
 <path fill="rgb(131,202,255)" stroke="none" d="M 2979,7100 L 3229,7225 3229,6975 2979,7100 Z"/>
 <path fill="none" stroke="rgb(131,202,255)" stroke-linejoin="round" d="M 2979,7100 L 3229,7225 3229,6975 2979,7100 Z"/>
 <path fill="rgb(131,202,255)" stroke="none" d="M 3301,7123 L 3551,7248 3551,6998 3301,7123 Z"/>
 <path fill="none" stroke="rgb(131,202,255)" stroke-linejoin="round" d="M 3301,7123 L 3551,7248 3551,6998 3301,7123 Z"/>
 <path fill="rgb(131,202,255)" stroke="none" d="M 3945,7100 L 4195,7225 4195,6975 3945,7100 Z"/>
 <path fill="none" stroke="rgb(131,202,255)" stroke-linejoin="round" d="M 3945,7100 L 4195,7225 4195,6975 3945,7100 Z"/>
 <path fill="rgb(131,202,255)" stroke="none" d="M 4589,7120 L 4839,7245 4839,6995 4589,7120 Z"/>
 <path fill="none" stroke="rgb(131,202,255)" stroke-linejoin="round" d="M 4589,7120 L 4839,7245 4839,6995 4589,7120 Z"/>
 <path fill="rgb(131,202,255)" stroke="none" d="M 7165,7116 L 7415,7241 7415,6991 7165,7116 Z"/>
 <path fill="none" stroke="rgb(131,202,255)" stroke-linejoin="round" d="M 7165,7116 L 7415,7241 7415,6991 7165,7116 Z"/>
 <path fill="rgb(131,202,255)" stroke="none" d="M 9740,7092 L 9990,7217 9990,6967 9740,7092 Z"/>
 <path fill="none" stroke="rgb(131,202,255)" stroke-linejoin="round" d="M 9740,7092 L 9990,7217 9990,6967 9740,7092 Z"/>
 <path fill="rgb(131,202,255)" stroke="none" d="M 12316,7113 L 12566,7238 12566,6988 12316,7113 Z"/>
 <path fill="none" stroke="rgb(131,202,255)" stroke-linejoin="round" d="M 12316,7113 L 12566,7238 12566,6988 12316,7113 Z"/>
 <path fill="none" stroke="rgb(126,0,33)" stroke-width="80" stroke-linejoin="round" d="M 2138,7131 L 2460,7128 2782,7154 3104,7167 3426,7173 4070,6993 4714,7162 7290,7161 9865,7160 12441,7164"/>
 <path fill="rgb(126,0,33)" stroke="none" d="M 2013,7006 L 2013,7256 2263,7131 2013,7006 Z"/>
 <path fill="none" stroke="rgb(126,0,33)" stroke-linejoin="round" d="M 2013,7006 L 2013,7256 2263,7131 2013,7006 Z"/>
 <path fill="rgb(126,0,33)" stroke="none" d="M 2335,7003 L 2335,7253 2585,7128 2335,7003 Z"/>
 <path fill="none" stroke="rgb(126,0,33)" stroke-linejoin="round" d="M 2335,7003 L 2335,7253 2585,7128 2335,7003 Z"/>
 <path fill="rgb(126,0,33)" stroke="none" d="M 2657,7029 L 2657,7279 2907,7154 2657,7029 Z"/>
 <path fill="none" stroke="rgb(126,0,33)" stroke-linejoin="round" d="M 2657,7029 L 2657,7279 2907,7154 2657,7029 Z"/>
 <path fill="rgb(126,0,33)" stroke="none" d="M 2979,7042 L 2979,7292 3229,7167 2979,7042 Z"/>
 <path fill="none" stroke="rgb(126,0,33)" stroke-linejoin="round" d="M 2979,7042 L 2979,7292 3229,7167 2979,7042 Z"/>
 <path fill="rgb(126,0,33)" stroke="none" d="M 3301,7048 L 3301,7298 3551,7173 3301,7048 Z"/>
 <path fill="none" stroke="rgb(126,0,33)" stroke-linejoin="round" d="M 3301,7048 L 3301,7298 3551,7173 3301,7048 Z"/>
 <path fill="rgb(126,0,33)" stroke="none" d="M 3945,6868 L 3945,7118 4195,6993 3945,6868 Z"/>
 <path fill="none" stroke="rgb(126,0,33)" stroke-linejoin="round" d="M 3945,6868 L 3945,7118 4195,6993 3945,6868 Z"/>
 <path fill="rgb(126,0,33)" stroke="none" d="M 4589,7037 L 4589,7287 4839,7162 4589,7037 Z"/>
 <path fill="none" stroke="rgb(126,0,33)" stroke-linejoin="round" d="M 4589,7037 L 4589,7287 4839,7162 4589,7037 Z"/>
 <path fill="rgb(126,0,33)" stroke="none" d="M 7165,7036 L 7165,7286 7415,7161 7165,7036 Z"/>
 <path fill="none" stroke="rgb(126,0,33)" stroke-linejoin="round" d="M 7165,7036 L 7165,7286 7415,7161 7165,7036 Z"/>
 <path fill="rgb(126,0,33)" stroke="none" d="M 9740,7035 L 9740,7285 9990,7160 9740,7035 Z"/>
 <path fill="none" stroke="rgb(126,0,33)" stroke-linejoin="round" d="M 9740,7035 L 9740,7285 9990,7160 9740,7035 Z"/>
 <path fill="rgb(126,0,33)" stroke="none" d="M 12316,7039 L 12316,7289 12566,7164 12316,7039 Z"/>
 <path fill="none" stroke="rgb(126,0,33)" stroke-linejoin="round" d="M 12316,7039 L 12316,7289 12566,7164 12316,7039 Z"/>
 <path fill="none" stroke="rgb(87,157,28)" stroke-width="80" stroke-linejoin="round" d="M 2138,7187 L 2460,7187 2782,7186 3104,7151 3426,7188 4070,7183 4714,7186 7290,7180 9865,7178 12441,7178"/>
 <path fill="rgb(87,157,28)" stroke="none" d="M 2013,7312 L 2263,7312 2138,7062 2013,7312 Z"/>
 <path fill="none" stroke="rgb(87,157,28)" stroke-linejoin="round" d="M 2013,7312 L 2263,7312 2138,7062 2013,7312 Z"/>
 <path fill="rgb(87,157,28)" stroke="none" d="M 2335,7312 L 2585,7312 2460,7062 2335,7312 Z"/>
 <path fill="none" stroke="rgb(87,157,28)" stroke-linejoin="round" d="M 2335,7312 L 2585,7312 2460,7062 2335,7312 Z"/>
 <path fill="rgb(87,157,28)" stroke="none" d="M 2657,7311 L 2907,7311 2782,7061 2657,7311 Z"/>
 <path fill="none" stroke="rgb(87,157,28)" stroke-linejoin="round" d="M 2657,7311 L 2907,7311 2782,7061 2657,7311 Z"/>
 <path fill="rgb(87,157,28)" stroke="none" d="M 2979,7276 L 3229,7276 3104,7026 2979,7276 Z"/>
 <path fill="none" stroke="rgb(87,157,28)" stroke-linejoin="round" d="M 2979,7276 L 3229,7276 3104,7026 2979,7276 Z"/>
 <path fill="rgb(87,157,28)" stroke="none" d="M 3301,7313 L 3551,7313 3426,7063 3301,7313 Z"/>
 <path fill="none" stroke="rgb(87,157,28)" stroke-linejoin="round" d="M 3301,7313 L 3551,7313 3426,7063 3301,7313 Z"/>
 <path fill="rgb(87,157,28)" stroke="none" d="M 3945,7308 L 4195,7308 4070,7058 3945,7308 Z"/>
 <path fill="none" stroke="rgb(87,157,28)" stroke-linejoin="round" d="M 3945,7308 L 4195,7308 4070,7058 3945,7308 Z"/>
 <path fill="rgb(87,157,28)" stroke="none" d="M 4589,7311 L 4839,7311 4714,7061 4589,7311 Z"/>
 <path fill="none" stroke="rgb(87,157,28)" stroke-linejoin="round" d="M 4589,7311 L 4839,7311 4714,7061 4589,7311 Z"/>
 <path fill="rgb(87,157,28)" stroke="none" d="M 7165,7305 L 7415,7305 7290,7055 7165,7305 Z"/>
 <path fill="none" stroke="rgb(87,157,28)" stroke-linejoin="round" d="M 7165,7305 L 7415,7305 7290,7055 7165,7305 Z"/>
 <path fill="rgb(87,157,28)" stroke="none" d="M 9740,7303 L 9990,7303 9865,7053 9740,7303 Z"/>
 <path fill="none" stroke="rgb(87,157,28)" stroke-linejoin="round" d="M 9740,7303 L 9990,7303 9865,7053 9740,7303 Z"/>
 <path fill="rgb(87,157,28)" stroke="none" d="M 12316,7303 L 12566,7303 12441,7053 12316,7303 Z"/>
 <path fill="none" stroke="rgb(87,157,28)" stroke-linejoin="round" d="M 12316,7303 L 12566,7303 12441,7053 12316,7303 Z"/>
 <path fill="none" stroke="rgb(255,211,32)" stroke-width="80" stroke-linejoin="round" d="M 2138,7189 L 2460,7189 2782,7187 3104,7043 3426,7189 4070,7172 4714,7187 7290,7182 9865,7181 12441,7179"/>
 <path fill="rgb(255,211,32)" stroke="none" d="M 2013,7064 L 2138,7314 2263,7064 2013,7064 Z"/>
 <path fill="none" stroke="rgb(255,211,32)" stroke-linejoin="round" d="M 2013,7064 L 2138,7314 2263,7064 2013,7064 Z"/>
 <path fill="rgb(255,211,32)" stroke="none" d="M 2335,7064 L 2460,7314 2585,7064 2335,7064 Z"/>
 <path fill="none" stroke="rgb(255,211,32)" stroke-linejoin="round" d="M 2335,7064 L 2460,7314 2585,7064 2335,7064 Z"/>
 <path fill="rgb(255,211,32)" stroke="none" d="M 2657,7062 L 2782,7312 2907,7062 2657,7062 Z"/>
 <path fill="none" stroke="rgb(255,211,32)" stroke-linejoin="round" d="M 2657,7062 L 2782,7312 2907,7062 2657,7062 Z"/>
 <path fill="rgb(255,211,32)" stroke="none" d="M 2979,6918 L 3104,7168 3229,6918 2979,6918 Z"/>
 <path fill="none" stroke="rgb(255,211,32)" stroke-linejoin="round" d="M 2979,6918 L 3104,7168 3229,6918 2979,6918 Z"/>
 <path fill="rgb(255,211,32)" stroke="none" d="M 3301,7064 L 3426,7314 3551,7064 3301,7064 Z"/>
 <path fill="none" stroke="rgb(255,211,32)" stroke-linejoin="round" d="M 3301,7064 L 3426,7314 3551,7064 3301,7064 Z"/>
 <path fill="rgb(255,211,32)" stroke="none" d="M 3945,7047 L 4070,7297 4195,7047 3945,7047 Z"/>
 <path fill="none" stroke="rgb(255,211,32)" stroke-linejoin="round" d="M 3945,7047 L 4070,7297 4195,7047 3945,7047 Z"/>
 <path fill="rgb(255,211,32)" stroke="none" d="M 4589,7062 L 4714,7312 4839,7062 4589,7062 Z"/>
 <path fill="none" stroke="rgb(255,211,32)" stroke-linejoin="round" d="M 4589,7062 L 4714,7312 4839,7062 4589,7062 Z"/>
 <path fill="rgb(255,211,32)" stroke="none" d="M 7165,7057 L 7290,7307 7415,7057 7165,7057 Z"/>
 <path fill="none" stroke="rgb(255,211,32)" stroke-linejoin="round" d="M 7165,7057 L 7290,7307 7415,7057 7165,7057 Z"/>
 <path fill="rgb(255,211,32)" stroke="none" d="M 9740,7056 L 9865,7306 9990,7056 9740,7056 Z"/>
 <path fill="none" stroke="rgb(255,211,32)" stroke-linejoin="round" d="M 9740,7056 L 9865,7306 9990,7056 9740,7056 Z"/>
 <path fill="rgb(255,211,32)" stroke="none" d="M 12316,7054 L 12441,7304 12566,7054 12316,7054 Z"/>
 <path fill="none" stroke="rgb(255,211,32)" stroke-linejoin="round" d="M 12316,7054 L 12441,7304 12566,7054 12316,7054 Z"/>
 <path fill="none" stroke="rgb(255,66,14)" stroke-width="80" stroke-linejoin="round" d="M 2138,7189 L 2460,7189 2782,7187 3104,7186 3426,7147 4070,7162 4714,7186 7290,7182 9865,7180 12441,7180"/>
 <path fill="rgb(255,66,14)" stroke="none" d="M 2013,7189 L 2138,7314 2263,7189 2138,7064 2013,7189 Z"/>
 <path fill="none" stroke="rgb(255,66,14)" stroke-linejoin="round" d="M 2013,7189 L 2138,7314 2263,7189 2138,7064 2013,7189 Z"/>
 <path fill="rgb(255,66,14)" stroke="none" d="M 2335,7189 L 2460,7314 2585,7189 2460,7064 2335,7189 Z"/>
 <path fill="none" stroke="rgb(255,66,14)" stroke-linejoin="round" d="M 2335,7189 L 2460,7314 2585,7189 2460,7064 2335,7189 Z"/>
 <path fill="rgb(255,66,14)" stroke="none" d="M 2657,7187 L 2782,7312 2907,7187 2782,7062 2657,7187 Z"/>
 <path fill="none" stroke="rgb(255,66,14)" stroke-linejoin="round" d="M 2657,7187 L 2782,7312 2907,7187 2782,7062 2657,7187 Z"/>
 <path fill="rgb(255,66,14)" stroke="none" d="M 2979,7186 L 3104,7311 3229,7186 3104,7061 2979,7186 Z"/>
 <path fill="none" stroke="rgb(255,66,14)" stroke-linejoin="round" d="M 2979,7186 L 3104,7311 3229,7186 3104,7061 2979,7186 Z"/>
 <path fill="rgb(255,66,14)" stroke="none" d="M 3301,7147 L 3426,7272 3551,7147 3426,7022 3301,7147 Z"/>
 <path fill="none" stroke="rgb(255,66,14)" stroke-linejoin="round" d="M 3301,7147 L 3426,7272 3551,7147 3426,7022 3301,7147 Z"/>
 <path fill="rgb(255,66,14)" stroke="none" d="M 3945,7162 L 4070,7287 4195,7162 4070,7037 3945,7162 Z"/>
 <path fill="none" stroke="rgb(255,66,14)" stroke-linejoin="round" d="M 3945,7162 L 4070,7287 4195,7162 4070,7037 3945,7162 Z"/>
 <path fill="rgb(255,66,14)" stroke="none" d="M 4589,7186 L 4714,7311 4839,7186 4714,7061 4589,7186 Z"/>
 <path fill="none" stroke="rgb(255,66,14)" stroke-linejoin="round" d="M 4589,7186 L 4714,7311 4839,7186 4714,7061 4589,7186 Z"/>
 <path fill="rgb(255,66,14)" stroke="none" d="M 7165,7182 L 7290,7307 7415,7182 7290,7057 7165,7182 Z"/>
 <path fill="none" stroke="rgb(255,66,14)" stroke-linejoin="round" d="M 7165,7182 L 7290,7307 7415,7182 7290,7057 7165,7182 Z"/>
 <path fill="rgb(255,66,14)" stroke="none" d="M 9740,7180 L 9865,7305 9990,7180 9865,7055 9740,7180 Z"/>
 <path fill="none" stroke="rgb(255,66,14)" stroke-linejoin="round" d="M 9740,7180 L 9865,7305 9990,7180 9865,7055 9740,7180 Z"/>
 <path fill="rgb(255,66,14)" stroke="none" d="M 12316,7180 L 12441,7305 12566,7180 12441,7055 12316,7180 Z"/>
 <path fill="none" stroke="rgb(255,66,14)" stroke-linejoin="round" d="M 12316,7180 L 12441,7305 12566,7180 12441,7055 12316,7180 Z"/>
 <path fill="none" stroke="rgb(0,69,134)" stroke-width="80" stroke-linejoin="round" d="M 2138,7189 L 2460,7189 2782,7188 3104,7189 3426,7188 4070,7187 4714,7186 7290,7181 9865,7181 12441,7180"/>
 <path fill="rgb(0,69,134)" stroke="none" d="M 2013,7064 L 2013,7314 2263,7314 2263,7064 2013,7064 Z"/>
 <path fill="none" stroke="rgb(0,69,134)" stroke-linejoin="round" d="M 2013,7064 L 2013,7314 2263,7314 2263,7064 2013,7064 Z"/>
 <path fill="rgb(0,69,134)" stroke="none" d="M 2335,7064 L 2335,7314 2585,7314 2585,7064 2335,7064 Z"/>
 <path fill="none" stroke="rgb(0,69,134)" stroke-linejoin="round" d="M 2335,7064 L 2335,7314 2585,7314 2585,7064 2335,7064 Z"/>
 <path fill="rgb(0,69,134)" stroke="none" d="M 2657,7063 L 2657,7313 2907,7313 2907,7063 2657,7063 Z"/>
 <path fill="none" stroke="rgb(0,69,134)" stroke-linejoin="round" d="M 2657,7063 L 2657,7313 2907,7313 2907,7063 2657,7063 Z"/>
 <path fill="rgb(0,69,134)" stroke="none" d="M 2979,7064 L 2979,7314 3229,7314 3229,7064 2979,7064 Z"/>
 <path fill="none" stroke="rgb(0,69,134)" stroke-linejoin="round" d="M 2979,7064 L 2979,7314 3229,7314 3229,7064 2979,7064 Z"/>
 <path fill="rgb(0,69,134)" stroke="none" d="M 3301,7063 L 3301,7313 3551,7313 3551,7063 3301,7063 Z"/>
 <path fill="none" stroke="rgb(0,69,134)" stroke-linejoin="round" d="M 3301,7063 L 3301,7313 3551,7313 3551,7063 3301,7063 Z"/>
 <path fill="rgb(0,69,134)" stroke="none" d="M 3945,7062 L 3945,7312 4195,7312 4195,7062 3945,7062 Z"/>
 <path fill="none" stroke="rgb(0,69,134)" stroke-linejoin="round" d="M 3945,7062 L 3945,7312 4195,7312 4195,7062 3945,7062 Z"/>
 <path fill="rgb(0,69,134)" stroke="none" d="M 4589,7061 L 4589,7311 4839,7311 4839,7061 4589,7061 Z"/>
 <path fill="none" stroke="rgb(0,69,134)" stroke-linejoin="round" d="M 4589,7061 L 4589,7311 4839,7311 4839,7061 4589,7061 Z"/>
 <path fill="rgb(0,69,134)" stroke="none" d="M 7165,7056 L 7165,7306 7415,7306 7415,7056 7165,7056 Z"/>
 <path fill="none" stroke="rgb(0,69,134)" stroke-linejoin="round" d="M 7165,7056 L 7165,7306 7415,7306 7415,7056 7165,7056 Z"/>
 <path fill="rgb(0,69,134)" stroke="none" d="M 9740,7056 L 9740,7306 9990,7306 9990,7056 9740,7056 Z"/>
 <path fill="none" stroke="rgb(0,69,134)" stroke-linejoin="round" d="M 9740,7056 L 9740,7306 9990,7306 9990,7056 9740,7056 Z"/>
 <path fill="rgb(0,69,134)" stroke="none" d="M 12316,7055 L 12316,7305 12566,7305 12566,7055 12316,7055 Z"/>
 <path fill="none" stroke="rgb(0,69,134)" stroke-linejoin="round" d="M 12316,7055 L 12316,7305 12566,7305 12566,7055 12316,7055 Z"/>
 <text class="TextShape"><tspan class="TextParagraph" font-family="Liberation Sans" font-size="353px" font-weight="400"><tspan class="TextPosition" x="2045" y="7758"><tspan fill="rgb(0,0,0)" stroke="none">0</tspan></tspan></tspan></text>
 <text class="TextShape"><tspan class="TextParagraph" font-family="Liberation Sans" font-size="353px" font-weight="400"><tspan class="TextPosition" x="3655" y="7758"><tspan fill="rgb(0,0,0)" stroke="none">5</tspan></tspan></tspan></text>
 <text class="TextShape"><tspan class="TextParagraph" font-family="Liberation Sans" font-size="353px" font-weight="400"><tspan class="TextPosition" x="5173" y="7758"><tspan fill="rgb(0,0,0)" stroke="none">10</tspan></tspan></tspan></text>
 <text class="TextShape"><tspan class="TextParagraph" font-family="Liberation Sans" font-size="353px" font-weight="400"><tspan class="TextPosition" x="6783" y="7758"><tspan fill="rgb(0,0,0)" stroke="none">15</tspan></tspan></tspan></text>
 <text class="TextShape"><tspan class="TextParagraph" font-family="Liberation Sans" font-size="353px" font-weight="400"><tspan class="TextPosition" x="8393" y="7758"><tspan fill="rgb(0,0,0)" stroke="none">20</tspan></tspan></tspan></text>
 <text class="TextShape"><tspan class="TextParagraph" font-family="Liberation Sans" font-size="353px" font-weight="400"><tspan class="TextPosition" x="10003" y="7758"><tspan fill="rgb(0,0,0)" stroke="none">25</tspan></tspan></tspan></text>
 <text class="TextShape"><tspan class="TextParagraph" font-family="Liberation Sans" font-size="353px" font-weight="400"><tspan class="TextPosition" x="11613" y="7758"><tspan fill="rgb(0,0,0)" stroke="none">30</tspan></tspan></tspan></text>
 <text class="TextShape"><tspan class="TextParagraph" font-family="Liberation Sans" font-size="353px" font-weight="400"><tspan class="TextPosition" x="13223" y="7758"><tspan fill="rgb(0,0,0)" stroke="none">35</tspan></tspan></tspan></text>
 <text class="TextShape"><tspan class="TextParagraph" font-family="Liberation Sans" font-size="353px" font-weight="400"><tspan class="TextPosition" x="1703" y="7311"><tspan fill="rgb(0,0,0)" stroke="none">0</tspan></tspan></tspan></text>
 <text class="TextShape"><tspan class="TextParagraph" font-family="Liberation Sans" font-size="353px" font-weight="400"><tspan class="TextPosition" x="1518" y="6175"><tspan fill="rgb(0,0,0)" stroke="none">50</tspan></tspan></tspan></text>
 <text class="TextShape"><tspan class="TextParagraph" font-family="Liberation Sans" font-size="353px" font-weight="400"><tspan class="TextPosition" x="1332" y="5040"><tspan fill="rgb(0,0,0)" stroke="none">100</tspan></tspan></tspan></text>
 <text class="TextShape"><tspan class="TextParagraph" font-family="Liberation Sans" font-size="353px" font-weight="400"><tspan class="TextPosition" x="1332" y="3904"><tspan fill="rgb(0,0,0)" stroke="none">150</tspan></tspan></tspan></text>
 <text class="TextShape"><tspan class="TextParagraph" font-family="Liberation Sans" font-size="353px" font-weight="400"><tspan class="TextPosition" x="1332" y="2768"><tspan fill="rgb(0,0,0)" stroke="none">200</tspan></tspan></tspan></text>
 <text class="TextShape"><tspan class="TextParagraph" font-family="Liberation Sans" font-size="353px" font-weight="400"><tspan class="TextPosition" x="1332" y="1633"><tspan fill="rgb(0,0,0)" stroke="none">250</tspan></tspan></tspan></text>
 <text class="TextShape"><tspan class="TextParagraph" font-family="Liberation Sans" font-size="353px" font-weight="400"><tspan class="TextPosition" x="1332" y="498"><tspan fill="rgb(0,0,0)" stroke="none">300</tspan></tspan></tspan></text>
 <path fill="none" stroke="rgb(0,69,134)" stroke-width="80" stroke-linejoin="round" d="M 14030,2756 L 14830,2756"/>
 <path fill="rgb(0,69,134)" stroke="none" d="M 14324,2651 L 14324,2861 14535,2861 14535,2651 14324,2651 Z"/>
 <path fill="none" stroke="rgb(0,69,134)" stroke-linejoin="round" d="M 14324,2651 L 14324,2861 14535,2861 14535,2651 14324,2651 Z"/>
 <path fill="none" stroke="rgb(255,66,14)" stroke-width="80" stroke-linejoin="round" d="M 14030,3254 L 14830,3254"/>
 <path fill="rgb(255,66,14)" stroke="none" d="M 14324,3254 L 14430,3359 14535,3254 14430,3149 14324,3254 Z"/>
 <path fill="none" stroke="rgb(255,66,14)" stroke-linejoin="round" d="M 14324,3254 L 14430,3359 14535,3254 14430,3149 14324,3254 Z"/>
 <path fill="none" stroke="rgb(255,211,32)" stroke-width="80" stroke-linejoin="round" d="M 14030,3752 L 14830,3752"/>
 <path fill="rgb(255,211,32)" stroke="none" d="M 14324,3647 L 14430,3857 14535,3647 14324,3647 Z"/>
 <path fill="none" stroke="rgb(255,211,32)" stroke-linejoin="round" d="M 14324,3647 L 14430,3857 14535,3647 14324,3647 Z"/>
 <path fill="none" stroke="rgb(87,157,28)" stroke-width="80" stroke-linejoin="round" d="M 14030,4250 L 14830,4250"/>
 <path fill="rgb(87,157,28)" stroke="none" d="M 14324,4355 L 14535,4355 14430,4145 14324,4355 Z"/>
 <path fill="none" stroke="rgb(87,157,28)" stroke-linejoin="round" d="M 14324,4355 L 14535,4355 14430,4145 14324,4355 Z"/>
 <path fill="none" stroke="rgb(126,0,33)" stroke-width="80" stroke-linejoin="round" d="M 14030,4747 L 14830,4747"/>
 <path fill="rgb(126,0,33)" stroke="none" d="M 14324,4642 L 14324,4852 14535,4747 14324,4642 Z"/>
 <path fill="none" stroke="rgb(126,0,33)" stroke-linejoin="round" d="M 14324,4642 L 14324,4852 14535,4747 14324,4642 Z"/>
 <path fill="none" stroke="rgb(131,202,255)" stroke-width="80" stroke-linejoin="round" d="M 14030,5245 L 14830,5245"/>
 <path fill="rgb(131,202,255)" stroke="none" d="M 14324,5245 L 14535,5350 14535,5140 14324,5245 Z"/>
 <path fill="none" stroke="rgb(131,202,255)" stroke-linejoin="round" d="M 14324,5245 L 14535,5350 14535,5140 14324,5245 Z"/>
 <path fill="none" stroke="rgb(49,64,4)" stroke-width="80" stroke-linejoin="round" d="M 14030,5743 L 14830,5743"/>
 <path fill="rgb(49,64,4)" stroke="none" d="M 14324,5638 L 14324,5848 14535,5638 14535,5848 14324,5638 Z"/>
 <path fill="none" stroke="rgb(49,64,4)" stroke-linejoin="round" d="M 14324,5638 L 14324,5848 14535,5638 14535,5848 14324,5638 Z"/>
 <path fill="none" stroke="rgb(174,207,0)" stroke-width="80" stroke-linejoin="round" d="M 14030,6241 L 14830,6241"/>
 <path fill="rgb(174,207,0)" stroke="none" d="M 14324,6346 L 14535,6346 14324,6136 14535,6136 14324,6346 Z"/>
 <path fill="none" stroke="rgb(174,207,0)" stroke-linejoin="round" d="M 14324,6346 L 14535,6346 14324,6136 14535,6136 14324,6346 Z"/>
 <text class="TextShape"><tspan class="TextParagraph" font-family="Liberation Sans" font-size="353px" font-weight="400"><tspan class="TextPosition" x="14930" y="2876"><tspan fill="rgb(0,0,0)" stroke="none">1</tspan></tspan></tspan></text>
 <text class="TextShape"><tspan class="TextParagraph" font-family="Liberation Sans" font-size="353px" font-weight="400"><tspan class="TextPosition" x="14930" y="3374"><tspan fill="rgb(0,0,0)" stroke="none">3</tspan></tspan></tspan></text>
 <text class="TextShape"><tspan class="TextParagraph" font-family="Liberation Sans" font-size="353px" font-weight="400"><tspan class="TextPosition" x="14930" y="3872"><tspan fill="rgb(0,0,0)" stroke="none">10</tspan></tspan></tspan></text>
 <text class="TextShape"><tspan class="TextParagraph" font-family="Liberation Sans" font-size="353px" font-weight="400"><tspan class="TextPosition" x="14930" y="4370"><tspan fill="rgb(0,0,0)" stroke="none">100</tspan></tspan></tspan></text>
 <text class="TextShape"><tspan class="TextParagraph" font-family="Liberation Sans" font-size="353px" font-weight="400"><tspan class="TextPosition" x="14930" y="4867"><tspan fill="rgb(0,0,0)" stroke="none">500</tspan></tspan></tspan></text>
 <text class="TextShape"><tspan class="TextParagraph" font-family="Liberation Sans" font-size="353px" font-weight="400"><tspan class="TextPosition" x="14930" y="5365"><tspan fill="rgb(0,0,0)" stroke="none">1000</tspan></tspan></tspan></text>
 <text class="TextShape"><tspan class="TextParagraph" font-family="Liberation Sans" font-size="353px" font-weight="400"><tspan class="TextPosition" x="14930" y="5863"><tspan fill="rgb(0,0,0)" stroke="none">3000</tspan></tspan></tspan></text>
 <text class="TextShape"><tspan class="TextParagraph" font-family="Liberation Sans" font-size="353px" font-weight="400"><tspan class="TextPosition" x="14930" y="6361"><tspan fill="rgb(0,0,0)" stroke="none">5000</tspan></tspan></tspan></text>
 <text class="TextShape"><tspan class="TextParagraph" font-family="Liberation Sans" font-size="318px" font-weight="400"><tspan class="TextPosition" x="6563" y="8405"><tspan fill="rgb(0,0,0)" stroke="none">N of streams</tspan></tspan></tspan></text>
 <text class="TextShape"><tspan class="TextParagraph" font-family="Liberation Sans" font-size="318px" font-weight="400"><tspan class="TextPosition" x="837" y="4643" transform="translate(837,4643) rotate(-90) translate(-837,-4643)"><tspan fill="rgb(0,0,0)" stroke="none">Time, ms</tspan></tspan></tspan></text>
</svg>